<svg width="80" height="29" viewBox="0 0 80 29" fill="none" xmlns="http://www.w3.org/2000/svg">
<path fill-rule="evenodd" clip-rule="evenodd" d="M60.0641 9.89747C57.3338 15.3539 54.1204 21.7753 52.923 24.1672L50.7459 28.5161H53.8336H56.9212L60.973 20.4531C63.2014 16.0184 65.0368 12.3908 65.0516 12.3916C65.0664 12.3924 66.8928 16.0115 69.1102 20.434C71.3276 24.8564 73.1646 28.4843 73.1923 28.4959C73.22 28.5075 74.6292 28.5111 76.3237 28.5038L79.4048 28.4907L72.2416 14.2571C68.3019 6.42856 65.0672 0.0129084 65.0533 2.78674e-05C65.0394 -0.0128526 62.7943 4.44101 60.0641 9.89747ZM13.4979 0.303683C11.3885 0.44973 9.53138 0.94857 7.80308 1.83337C2.8329 4.37798 -0.17828 9.504 0.00818611 15.1031C0.131304 18.7999 1.56599 22.1386 4.14885 24.739C6.54141 27.1477 9.54801 28.5866 12.8859 28.9203C13.6442 28.9961 15.1363 28.9842 15.892 28.8963C18.3925 28.6056 20.6597 27.7285 22.6448 26.284C23.4011 25.7336 24.3331 24.9091 24.3331 24.7903C24.3331 24.7613 23.4628 23.8622 22.3992 22.7922L20.4653 20.8467L20.018 21.2368C16.7356 24.0991 11.9966 24.1508 8.67847 21.3606C7.15237 20.0773 6.11002 18.3204 5.68705 16.3188C5.45633 15.2272 5.50068 13.6334 5.79419 12.4662C6.40887 10.0217 8.09931 7.92062 10.3648 6.78531C13.5541 5.18706 17.339 5.67439 20.042 8.03127L20.463 8.39836L22.398 6.45173C23.4623 5.38108 24.3331 4.48183 24.3331 4.45343C24.3331 4.38761 23.4673 3.61006 22.9724 3.23141C20.7215 1.50923 18.1261 0.526708 15.2869 0.32204C14.6222 0.274119 14.0151 0.267882 13.4979 0.303683ZM38.5448 0.423107C36.2642 0.593241 34.1142 1.26992 32.2201 2.41375C28.5243 4.64547 26.0798 8.35282 25.408 12.7451C25.2961 13.4765 25.2797 15.7639 25.3812 16.4723C25.6314 18.2172 26.0441 19.5683 26.7832 21.0616C27.5093 22.5286 28.3419 23.6872 29.5187 24.8683C30.2828 25.6352 30.7948 26.061 31.6153 26.6118C33.4433 27.8389 35.3431 28.559 37.6629 28.9039C38.5946 29.0424 40.6415 29.029 41.6136 28.8779C44.462 28.4353 46.9939 27.2318 49.1457 25.2977L49.6421 24.8515L49.1457 24.3475C48.8727 24.0702 47.9801 23.1859 47.1622 22.3823L45.6751 20.9212L45.2471 21.2972C43.9259 22.4578 42.2997 23.1839 40.5407 23.3986C39.8472 23.4832 38.517 23.4305 37.8645 23.2925C35.1824 22.7253 33 21.0661 31.7951 18.6782C31.4564 18.007 31.2883 17.5577 31.1159 16.8634C30.5077 14.4139 30.9394 11.913 32.3343 9.80386C32.7838 9.12428 33.6921 8.16869 34.3516 7.68167C35.4409 6.87709 36.7365 6.32323 38.1165 6.07211C38.8737 5.93433 40.2926 5.94366 41.0737 6.09154C42.679 6.39545 44.2074 7.15169 45.3301 8.19765C45.5 8.35592 45.6587 8.48538 45.6829 8.48538C45.7563 8.48538 49.5955 4.59669 49.5753 4.54283C49.5649 4.51525 49.3935 4.34283 49.1944 4.15967C47.3216 2.43667 44.8519 1.16794 42.4254 0.682238C41.2141 0.439841 39.6875 0.337863 38.5448 0.423107Z" fill="white"/>
</svg>
