<svg width="41.66" height="54" viewBox="0 0 292 374" fill="none" xmlns="http://www.w3.org/2000/svg">
<path fill-rule="evenodd" clip-rule="evenodd" d="M6.991 0.329191C6.986 0.637191 6.978 24.6262 6.974 53.6392L6.966 106.389H33.733H60.5L66.165 103.607C77.75 97.9182 88.371 83.0672 91.536 68.1352C94.542 53.9512 92.795 37.5312 86.984 25.3562C82.877 16.7502 73.527 6.78619 66.165 3.17119L60.5 0.389191L33.75 0.0791906C19.038 -0.0908094 6.996 0.0221906 6.991 0.329191ZM57.601 14.7952C79.38 24.6862 84.036 67.1602 65.434 86.2642C58.912 92.9622 55.708 93.8422 37.75 93.8672L22 93.8892V53.3892V12.8892L37.75 12.9112C50.946 12.9292 54.165 13.2352 57.601 14.7952ZM32.676 143.139C28.193 155.913 0 239.104 0 239.557C0 239.74 3.54401 239.889 7.87701 239.889H15.753L21 224.889L26.247 209.889L45.373 209.893L64.5 209.898L69.5 224.643L74.5 239.389L82.647 239.678L90.794 239.967L78.284 203.178C71.403 182.944 63.245 158.852 60.155 149.639L54.536 132.889H45.404H36.273L32.676 143.139ZM100.991 133.389C100.986 133.664 100.976 157.627 100.97 186.639L100.958 239.389L108.469 239.681L115.979 239.973L116.24 195.301L116.5 150.63L139.988 195.259L163.477 239.889H174.738H186V186.389V132.889H178.51H171.02L170.76 177.716L170.5 222.543L147 177.717L123.5 132.89H112.25C106.063 132.889 100.996 133.114 100.991 133.389ZM53.547 175.889L59.662 195.389L45.693 195.667C38.009 195.82 31.547 195.77 31.333 195.555C31.002 195.224 38.164 171.468 43.743 154.389L45.377 149.389L46.404 152.889C46.97 154.814 50.184 165.164 53.547 175.889ZM237.58 264.97C230.135 266.089 220.475 270.562 215.185 275.341C206.273 283.392 203.99 295.587 209.499 305.71C215.481 316.7 224.802 320.655 254.5 324.804C264.599 326.215 272.062 329.731 274.478 334.218C276.821 338.568 276.211 347.78 273.322 351.68C266.832 360.443 251.91 363.179 237.508 358.246C230.562 355.867 222.488 347.713 220.922 341.495L219.763 336.889H211.836H203.909L204.566 340.639C208.064 360.631 226.943 373.854 252 373.862C275.238 373.87 290.44 362.37 291.775 343.773C292.416 334.836 290.255 328.516 284.733 323.185C277.145 315.859 268.94 312.911 249.047 310.364C235.323 308.607 227.941 306.031 225.096 302.004C216.796 290.257 228.298 277.889 247.523 277.889C260.076 277.889 268.14 282.263 272.474 291.425L275.099 296.975L282.3 296.682L289.5 296.389L289.225 292.982C288.865 288.528 283.452 278.447 279.746 275.328C269.595 266.787 252.859 262.676 237.58 264.97ZM7 319.389V372.889H14.5H22V319.389V265.889H14.5H7V319.389ZM40 319.389V372.889H79.5H119V366.389V359.889H87.5H56V342.389V324.889H83H110V318.389V311.889H83H56V295.389V278.889H86H116V272.389V265.889H78H40V319.389ZM133 319.389V372.889H168.5H204V366.405V359.921L176.25 359.655L148.5 359.389L148.24 312.639L147.98 265.889H140.49H133V319.389Z" fill="white"/>
</svg>
