<svg width="203" height="39" viewBox="0 0 1116 213" fill="none" xmlns="http://www.w3.org/2000/svg">
<path fill-rule="evenodd" clip-rule="evenodd" d="M33.851 0.341154C33.472 0.719154 33.163 1.85315 33.163 2.86215C33.163 4.02815 32.436 4.69515 31.163 4.69515C29.828 4.69515 29.163 5.36216 29.163 6.69916C29.163 7.80116 28.331 10.2542 27.315 12.1502C25.876 14.8352 25.201 15.3332 24.265 14.3972C23.604 13.7362 21.991 13.1752 20.681 13.1492C17.814 13.0952 15.457 17.1402 17.16 19.1922C17.957 20.1522 17.595 20.6212 15.69 21.0992C13.011 21.7712 12.313 24.4452 14.299 26.4312C15.146 27.2782 15.038 27.9632 13.87 29.1312C13.01 29.9912 11.824 30.6952 11.234 30.6952C10.645 30.6952 10.163 31.3702 10.163 32.1952C10.163 33.0202 10.613 33.6952 11.163 33.6952C11.713 33.6952 12.163 34.3702 12.163 35.1952C12.163 36.0202 12.613 36.6952 13.163 36.6952C13.713 36.6952 14.163 37.2942 14.163 38.0262C14.163 39.7422 18.625 42.1461 20.108 41.2291C20.893 40.7441 21.051 41.2942 20.62 43.0112C20.044 45.3072 20.265 45.4952 23.543 45.4952C25.989 45.4952 27.863 44.7221 29.579 43.0061C32.532 40.0541 33.324 40.4082 36.715 46.1932C38.802 49.7552 39.083 50.9772 38.193 52.6382C36.812 55.2202 29.762 59.0382 25.163 59.6952C22.23 60.1142 21.663 60.6002 21.663 62.6952V65.1952H43.163H64.663V62.6952C64.663 60.6182 64.126 60.1432 61.487 59.8872C59.741 59.7182 57.773 58.9302 57.115 58.1372C56.457 57.3442 55.278 56.6952 54.495 56.6952C53.712 56.6952 51.968 55.5901 50.618 54.2402C47.93 51.5532 47.388 47.0372 49.313 43.3792C51.137 39.9142 52.513 39.5951 54.693 42.1321C56.703 44.4711 58.451 45.0331 63.02 44.8102C64.592 44.7332 65.2 44.2332 64.845 43.3102C64.266 41.7991 68.383 37.6952 70.479 37.6952C71.195 37.6952 72.648 37.0611 73.709 36.2851C75.6 34.9021 75.601 34.8372 73.745 32.7851C72.704 31.6361 70.985 30.6952 69.925 30.6952C67.461 30.6952 68.164 28.2942 70.741 27.9062C74.166 27.3912 75.938 20.6952 72.649 20.6952C71.908 20.6952 71.158 19.6822 70.983 18.4452C70.807 17.2082 69.988 16.1852 69.163 16.1742C68.115 16.1592 67.755 15.2992 67.967 13.3232C68.268 10.5182 68.229 10.4982 63.311 10.8452C60.583 11.0372 58.529 10.9082 58.746 10.5582C59.415 9.48015 56.32 7.48015 55.125 8.21815C54.429 8.64915 54.071 8.20515 54.187 7.05415C54.289 6.03216 54.06 4.22715 53.678 3.04415C52.255 -1.35085 42.314 1.50115 42.073 6.37415C42.023 7.37515 41.574 6.78515 41.075 5.06215C40.575 3.33915 39.378 1.65115 38.415 1.31115C37.451 0.972155 36.185 0.460154 35.601 0.174154C35.016 -0.112846 34.229 -0.0368465 33.851 0.341154ZM38.124 3.88415C40.406 6.33315 40.727 7.69515 39.023 7.69515C37.656 7.69515 35.239 4.69615 35.195 2.94515C35.15 1.17515 35.792 1.38115 38.124 3.88415ZM47.705 4.44515C48.644 6.62015 48.297 10.8772 47.077 12.1452C46.516 12.7282 46.117 11.9552 46.045 10.1452L45.926 7.19515L45.163 10.1952C44.417 13.1262 44.161 12.7112 43.663 7.76615C43.435 5.49815 44.841 2.82015 46.306 2.73315C46.66 2.71215 47.289 3.48315 47.705 4.44515ZM52.529 4.20715C53.322 6.27215 51.039 11.2462 50.104 9.49415C49.561 8.47815 49.546 4.54515 50.08 2.94515C50.368 2.08115 52.045 2.94615 52.529 4.20715ZM32.963 6.89515C33.623 7.55515 34.163 7.78015 34.163 7.39515C34.163 7.01015 34.991 7.48315 36.002 8.44515C37.271 9.65215 37.541 10.5862 36.871 11.4562C36.11 12.4432 35.587 12.3352 34.457 10.9562C33.664 9.98715 33.3 9.75815 33.648 10.4452C33.996 11.1332 34.001 12.1482 33.658 12.7032C32.66 14.3172 30.163 11.1472 30.163 8.26615C30.163 5.47015 31.086 5.01815 32.963 6.89515ZM56.738 11.3972C56.58 12.8832 55.936 14.2712 55.307 14.4802C54.678 14.6902 54.156 15.6122 54.148 16.5282C54.135 17.8932 53.97 17.9392 53.24 16.7862C52.75 16.0112 52.582 14.7682 52.867 14.0242C53.219 13.1082 52.867 12.8712 51.774 13.2912C50.888 13.6312 50.163 13.6042 50.163 13.2312C50.163 11.9612 52.677 10.0332 53.83 10.4172C54.462 10.6282 55.273 10.3272 55.63 9.74815C56.698 8.02015 57.044 8.53515 56.738 11.3972ZM41.778 10.4602C43.438 11.5542 44.4 15.4312 43.195 16.1752C42.618 16.5322 41.728 15.7822 41.218 14.5092L40.29 12.1952L40.196 14.6952C40.113 16.9012 39.981 16.9872 39.072 15.4252C38.046 13.6632 38.679 9.68115 39.98 9.71015C40.356 9.71915 41.165 10.0562 41.778 10.4602ZM65.536 12.5712C67.295 13.2632 67.306 13.4092 65.714 15.0012C63.636 17.0792 61.748 17.2182 62.508 15.2382C62.958 14.0652 62.589 13.9632 60.615 14.7132C57.454 15.9152 57.259 13.9942 60.413 12.7262C63.111 11.6422 63.166 11.6402 65.536 12.5712ZM48.834 15.3582C48.538 15.6532 47.768 15.5692 47.123 15.1702C46.253 14.6322 46.3 14.2272 47.306 13.6022C48.64 12.7742 49.932 14.2592 48.834 15.3582ZM32.495 17.9452C33.664 20.3382 35.022 21.6952 36.245 21.6952C37.3 21.6952 38.163 22.1032 38.163 22.6012C38.163 23.1002 37.15 23.2472 35.913 22.9282C33.915 22.4132 33.816 22.5342 35.025 24.0092C35.774 24.9222 36.131 26.3362 35.819 27.1502C35.506 27.9652 35.681 28.8972 36.207 29.2222C37.472 30.0042 37.438 32.6952 36.163 32.6952C35.613 32.6952 35.127 31.9082 35.084 30.9452C35.036 29.8892 34.804 29.6932 34.499 30.4512C34.22 31.1422 33.581 31.4532 33.078 31.1422C31.824 30.3672 31.919 23.9642 33.197 23.1742C33.965 22.6992 30.888 19.4542 28.537 18.2592C28.468 18.2242 28.087 17.1412 27.691 15.8532C26.478 11.9132 30.378 13.6112 32.495 17.9452ZM24.569 17.1962L27.474 19.6952H24.819C23.358 19.6952 22.163 19.1702 22.163 18.5282C22.163 17.8872 21.866 17.6592 21.502 18.0222C21.139 18.3852 21.59 19.5102 22.505 20.5202C24.541 22.7712 23.608 24.0042 20.946 22.5792C19.871 22.0042 19.251 21.2732 19.569 20.9562C19.886 20.6392 19.692 19.8322 19.137 19.1642C17.945 17.7272 18.883 14.6942 20.52 14.6962C21.149 14.6972 22.97 15.8222 24.569 17.1962ZM37.163 15.5882C37.163 16.0792 36.488 16.7402 35.663 17.0572C34.749 17.4072 34.163 17.0582 34.163 16.1642C34.163 15.3562 34.838 14.6952 35.663 14.6952C36.488 14.6952 37.163 15.0972 37.163 15.5882ZM59.667 17.6882C59.193 18.4552 55.163 19.7932 55.163 19.1832C55.163 17.3262 56.625 16.0032 58.216 16.4192C59.275 16.6962 59.928 17.2672 59.667 17.6882ZM51.991 21.9322C51.299 23.1772 50.718 24.5102 50.698 24.8952C50.679 25.2802 50.039 26.1802 49.277 26.8952C48.115 27.9852 47.981 27.8222 48.448 25.8882C48.92 23.9372 48.777 23.7712 47.521 24.8122C45.103 26.8202 47.047 20.5782 49.514 18.4122C51.298 16.8462 51.65 16.8142 52.397 18.1482C52.912 19.0682 52.751 20.5622 51.991 21.9322ZM68.307 18.9512C67.764 19.4942 67.557 20.5592 67.848 21.3172C68.153 22.1102 67.741 22.6952 66.877 22.6952C66.052 22.6952 65.118 23.3702 64.801 24.1952C64.237 25.6672 61.163 26.3552 61.163 25.0092C61.163 24.6322 62.165 23.2572 63.389 21.9542C64.895 20.3512 65.099 19.7822 64.019 20.1972C63.072 20.5602 62.185 20.1962 61.843 19.3032C61.464 18.3152 61.728 17.9752 62.613 18.3142C63.354 18.5992 64.232 18.3932 64.563 17.8572C64.894 17.3212 66.094 17.1262 67.23 17.4232C68.59 17.7782 68.958 18.3002 68.307 18.9512ZM44.413 19.3112C46.264 19.9642 46.472 21.0542 45.308 24.0082C44.629 25.7292 44.46 25.7172 41.971 23.7592C40.153 22.3282 39.513 21.0712 39.884 19.6552C40.177 18.5322 40.923 17.8562 41.54 18.1532C42.158 18.4512 43.45 18.9712 44.413 19.3112ZM60.913 20.9452C60.684 21.6332 59.896 22.1952 59.163 22.1952C58.43 22.1952 57.642 21.6332 57.413 20.9452C57.165 20.2012 57.874 19.6952 59.163 19.6952C60.452 19.6952 61.161 20.2012 60.913 20.9452ZM28.163 21.1132C28.163 22.6382 26.801 24.5892 26.058 24.1302C24.595 23.2262 25.041 20.6952 26.663 20.6952C27.488 20.6952 28.163 20.8832 28.163 21.1132ZM73.163 22.6212C73.163 24.8572 70.116 26.8762 66.128 27.2842C62.584 27.6472 62.127 27.5372 63.913 26.7502C65.15 26.2052 66.163 25.3472 66.163 24.8442C66.163 24.3402 67.108 23.6812 68.264 23.3792C69.419 23.0772 70.093 22.3912 69.762 21.8562C69.414 21.2922 70.003 21.1022 71.162 21.4052C72.262 21.6932 73.163 22.2402 73.163 22.6212ZM19.288 22.9952C20.545 23.9532 21.171 27.9532 20.291 29.4052C20.22 29.5212 18.876 28.3962 17.304 26.9052C15.277 24.9842 14.731 23.8312 15.426 22.9452C16.632 21.4102 17.214 21.4172 19.288 22.9952ZM26.715 26.7522C28.556 28.7872 28.545 28.8032 25.747 28.2962C22.366 27.6832 21.745 27.1802 22.622 25.7622C23.59 24.1952 24.628 24.4462 26.715 26.7522ZM43.661 27.1052C45.091 28.4312 45.821 29.7892 45.281 30.1222C44.742 30.4552 44.019 30.2702 43.673 29.7112C43.328 29.1522 42.552 28.6952 41.949 28.6952C41.346 28.6952 41.71 29.6712 42.758 30.8652C44.558 32.9142 44.562 32.9972 42.831 32.3652C41.824 31.9962 40.375 31.6952 39.613 31.6952C38.791 31.6952 38.46 31.0842 38.801 30.1952C39.118 29.3702 38.879 28.6952 38.27 28.6952C37.661 28.6952 37.163 27.7952 37.163 26.6952C37.163 23.9072 40.432 24.1132 43.661 27.1052ZM58.86 26.4872C60.595 27.5902 59.163 29.1962 55.251 30.5362C50.904 32.0242 50.141 31.3312 53.825 29.2412L56.663 27.6302L53.163 28.2002C49.673 28.7692 49.67 28.7662 52.163 27.2682C54.949 25.5942 57.067 25.3472 58.86 26.4872ZM30.663 27.6952C31.003 28.2452 30.804 28.6952 30.222 28.6952C29.64 28.6952 29.163 28.2452 29.163 27.6952C29.163 27.1452 29.361 26.6952 29.604 26.6952C29.847 26.6952 30.323 27.1452 30.663 27.6952ZM65.663 30.7092C65.663 32.8522 62.757 32.5432 62.336 30.3542C62.079 29.0182 62.486 28.6112 63.822 28.8682C64.835 29.0632 65.663 29.8912 65.663 30.7092ZM19.737 31.8142C20.036 32.2992 19.242 32.7022 17.972 32.7102C16.114 32.7232 15.956 32.9152 17.163 33.6952C18.369 34.4742 18.207 34.6672 16.342 34.6802C15.065 34.6882 13.345 34.0202 12.52 33.1952C11.187 31.8622 11.195 31.6952 12.592 31.6952C13.456 31.6952 14.163 31.3072 14.163 30.8342C14.163 29.7612 18.993 30.6112 19.737 31.8142ZM23.973 31.4452C23.567 33.5532 21.792 33.4202 21.34 31.2482C21.151 30.3422 21.702 29.6952 22.663 29.6952C23.693 29.6952 24.183 30.3502 23.973 31.4452ZM31.611 32.0602C34.636 34.8632 34.941 36.1822 32.229 34.7302C29.251 33.1372 28.671 33.4942 30.663 35.6952C31.658 36.7952 32.066 37.6812 31.568 37.6632C29.841 37.6032 27.236 35.0182 26.227 32.3642C25.346 30.0452 25.465 29.6952 27.136 29.6952C28.194 29.6952 30.208 30.7591 31.611 32.0602ZM47.547 35.6952C46.9 39.7442 47.74 40.7182 49.963 38.4952C51.912 36.5462 51.333 38.6642 49.163 41.4221C46.11 45.3032 46.428 52.1101 49.809 55.2431C51.264 56.5911 53.038 57.6952 53.75 57.6952C54.462 57.6952 55.323 58.1452 55.663 58.6952C56.912 60.7152 53.566 59.5602 50.283 56.8382C47.975 54.9231 46.664 52.7922 46.148 50.1152L45.393 46.1952L45.278 49.9902C45.193 52.8041 45.81 54.4322 47.663 56.2862C49.038 57.6612 50.163 58.9902 50.163 59.2402C50.163 60.3242 46.886 59.5612 45.473 58.1482C44.076 56.7512 43.727 56.7752 41.891 58.3982C39.884 60.1722 39.865 60.1502 40.455 56.6952C40.972 53.6642 40.905 53.4962 39.954 55.4452C39.351 56.6822 38.116 57.6952 37.21 57.6952C36.304 57.6952 35.03 58.2271 34.38 58.8782C33.729 59.5292 32.922 59.7872 32.587 59.4522C32.251 59.1172 33.356 58.1302 35.04 57.2582C38.123 55.6642 40.163 52.9682 40.163 50.4882C40.163 49.7522 38.589 46.7592 36.665 43.8382C33.429 38.9241 33.279 38.3672 34.665 36.3882C36.134 34.2912 36.163 34.3102 36.163 37.3382C36.163 40.4422 39.417 45.6952 41.341 45.6952C41.945 45.6952 42.212 44.0091 41.986 41.6321C41.653 38.1491 41.779 37.8181 42.87 39.3092C44.525 41.5732 45.209 40.7702 45.879 35.7782C46.18 33.5322 46.822 31.6952 47.306 31.6952C47.791 31.6952 47.899 33.4952 47.547 35.6952ZM72.075 33.5002C73.291 34.6852 73.291 35.0011 72.075 35.7701C69.212 37.5831 64.996 35.6952 65.894 33.0032C66.411 31.4502 70.293 31.7622 72.075 33.5002ZM41.163 34.8172C41.163 36.5912 40.916 36.7352 39.663 35.6952C38.838 35.0102 38.163 34.0551 38.163 33.5732C38.163 33.0901 38.838 32.6952 39.663 32.6952C40.525 32.6952 41.163 33.5972 41.163 34.8172ZM49.331 35.9272C48.589 36.6692 48.459 36.2781 48.894 34.6152C49.248 33.2631 49.701 32.8092 49.951 33.5582C50.191 34.2802 49.913 35.3452 49.331 35.9272ZM57.163 33.2662C57.163 34.2992 54.331 36.6952 53.112 36.6952C52.257 36.6952 52.308 36.2162 53.291 35.0082C54.496 33.5252 54.444 33.4032 52.861 33.9962C51.779 34.4022 51.303 34.2771 51.67 33.6842C52.311 32.6472 57.163 32.2782 57.163 33.2662ZM45.009 36.1432C45.229 37.2831 44.869 37.7641 44.009 37.4771C43.268 37.2312 42.508 36.2272 42.317 35.2472C42.097 34.1072 42.457 33.6262 43.317 33.9132C44.058 34.1592 44.818 35.1632 45.009 36.1432ZM22.163 35.1132C22.163 35.3432 22.435 36.2402 22.768 37.1072C23.572 39.2032 19.356 40.8332 16.976 39.3462C15.722 38.5632 15.549 37.9352 16.327 36.9972C16.912 36.2932 17.789 35.9642 18.276 36.2652C18.764 36.5662 19.163 36.3362 19.163 35.7542C19.163 35.1721 19.838 34.6952 20.663 34.6952C21.488 34.6952 22.163 34.8832 22.163 35.1132ZM40.002 38.2421C40.641 39.6432 41.148 41.5551 41.13 42.4921C41.082 44.9601 37.163 40.1122 37.163 37.5842C37.163 34.9032 38.637 35.2451 40.002 38.2421ZM66.493 37.1122C66.793 37.8932 66.288 38.8172 65.369 39.1692C64.452 39.5212 63.543 39.3342 63.349 38.7522C63.155 38.1712 62.385 37.6952 61.639 37.6952C60.892 37.6952 60.003 37.2452 59.663 36.6952C59.297 36.1022 60.45 35.6952 62.497 35.6952C64.553 35.6952 66.169 36.2682 66.493 37.1122ZM63.163 42.2632C63.163 44.5432 58.217 43.9832 56.185 41.4742C54.538 39.4402 54.523 39.1532 56.004 38.0692C57.298 37.1232 58.177 37.2812 60.393 38.8592C61.916 39.9442 63.163 41.4762 63.163 42.2632ZM26.035 40.3592C24.786 41.8732 24.873 41.9112 26.999 40.7782C30.213 39.0652 30.959 40.2302 28.121 42.5282C25.626 44.5482 22.163 44.3162 22.163 42.1282C22.163 41.3951 22.95 40.3362 23.913 39.7752C26.572 38.2262 27.569 38.5002 26.035 40.3592ZM56.663 39.6952C57.003 40.2452 57.479 40.6952 57.722 40.6952C57.965 40.6952 58.163 40.2452 58.163 39.6952C58.163 39.1452 57.686 38.6952 57.104 38.6952C56.522 38.6952 56.323 39.1452 56.663 39.6952ZM27.736 62.7752C29.611 64.8472 29.605 64.8542 26.149 64.5252C23.805 64.3022 22.572 63.6272 22.348 62.4452C21.878 59.9642 25.386 60.1792 27.736 62.7752ZM41.963 61.8951C43.789 63.7211 43.407 64.6952 40.863 64.6952C38.588 64.6952 36.163 63.0442 36.163 61.4952C36.163 60.2482 40.624 60.5561 41.963 61.8951ZM56.663 62.6952C58.429 64.6461 58.41 64.6952 55.889 64.6952C53.686 64.6952 50.163 62.4982 50.163 61.1242C50.163 59.8002 55.13 61.0012 56.663 62.6952ZM363.348 69.6632C358.061 70.9492 355.163 74.3301 355.163 79.2141C355.163 84.1702 356.522 85.6371 364.296 89.0751C367.357 90.4291 370.604 92.2792 371.512 93.1871C373.982 95.6572 373.572 99.3811 370.618 101.317C367.121 103.607 361.191 101.823 357.769 97.4511C356.394 95.6942 355.061 94.4671 354.807 94.7252C354.553 94.9842 354.581 97.2802 354.871 99.8292L355.397 104.463L361.03 105.091C370.406 106.136 377.317 102.824 378.677 96.6332C379.742 91.7832 377.125 88.5782 368.518 84.1952C360.011 79.8632 358.382 77.3202 361.738 73.6132C364.809 70.2192 372.318 71.7462 374.336 76.1752C376.069 79.9792 377.163 79.2132 377.163 74.1952C377.163 69.7882 377.096 69.6952 373.913 69.6812C372.125 69.6741 369.763 69.4852 368.663 69.2622C367.563 69.0392 365.171 69.2192 363.348 69.6632ZM411.56 72.5992C409.763 76.8971 410.344 77.4852 413.745 74.8092C415.523 73.4101 417.871 72.6952 420.681 72.6952C425.902 72.6952 426.136 73.3162 426.136 87.1952C426.136 99.9072 425.666 101.644 422.033 102.371C416.171 103.543 419.456 104.695 428.663 104.695C437.768 104.695 440.937 103.608 435.678 102.288C432.403 101.466 432.028 99.5262 432.373 85.1952L432.663 73.1952L437.822 72.8961C442.22 72.6412 443.212 72.9272 444.549 74.8362C446.576 77.7301 447.457 76.7782 446.664 72.5471L446.035 69.1952H429.509H412.983L411.56 72.5992ZM535.848 69.6612C526.376 72.6762 520.695 82.5282 523.156 91.6682C527.062 106.173 545.798 110.236 555.517 98.6861C562.856 89.9641 560.738 77.2852 551.019 71.7582C546.765 69.3392 539.857 68.3842 535.848 69.6612ZM627.057 72.5122C625.685 76.6732 626.392 77.4662 629.08 74.7782C630.635 73.2232 632.43 72.6952 636.163 72.6952H641.163V86.4952C641.163 101.118 640.705 102.695 636.463 102.695C635.198 102.695 634.163 103.145 634.163 103.695C634.163 104.291 637.996 104.695 643.663 104.695C652.699 104.695 655.943 103.61 650.779 102.314C648.747 101.804 648.294 100.901 647.706 96.1901C647.326 93.1511 647.332 86.6212 647.718 81.6802L648.421 72.6952H653.284C657.063 72.6952 658.424 73.1402 659.395 74.6952C660.082 75.7952 660.986 76.6952 661.404 76.6952C662.374 76.6952 662.369 71.5172 661.398 70.1952C660.96 69.5992 654.088 69.1952 644.407 69.1952H628.151L627.057 72.5122ZM678.818 70.1542C671.665 72.7042 666.232 80.2202 666.185 87.6292C666.152 92.8141 669.824 99.4422 674.411 102.478C682.175 107.616 694.167 105.49 699.913 97.9571C703.033 93.8651 704.178 84.5602 702.16 79.6881C699.748 73.8642 691.357 68.6162 684.663 68.7442C683.563 68.7662 680.933 69.4002 678.818 70.1542ZM762.8 70.1072C752.144 74.0512 747.145 85.8612 752.057 95.4852C754.473 100.22 757.067 102.542 761.847 104.246C767.51 106.266 771.183 105.988 776.981 103.098C780.78 101.205 782.897 99.2982 784.795 96.0602C789.769 87.5722 786.543 75.5282 778.129 71.1772C773.777 68.9272 767.225 68.4692 762.8 70.1072ZM841.56 72.5992C839.763 76.8971 840.344 77.4852 843.745 74.8092C845.523 73.4101 847.871 72.6952 850.681 72.6952C855.902 72.6952 856.136 73.3162 856.136 87.1952C856.136 99.9072 855.666 101.644 852.033 102.371C846.171 103.543 849.456 104.695 858.663 104.695C867.768 104.695 870.937 103.608 865.678 102.288C862.403 101.466 862.028 99.5262 862.373 85.1952L862.663 73.1952L867.822 72.8961C872.22 72.6412 873.212 72.9272 874.549 74.8362C876.576 77.7301 877.457 76.7782 876.664 72.5471L876.035 69.1952H859.509H842.983L841.56 72.5992ZM891.508 71.0552C887.625 72.9081 885.683 74.6572 883.64 78.1432C878.207 87.4152 881.904 99.4032 891.547 103.782C898.511 106.945 905.767 105.738 911.839 100.406C923.924 89.7962 917.7 70.8311 901.571 69.1171C897.687 68.7041 895.587 69.1082 891.508 71.0552ZM0.403999 97.9452C0.834999 128.178 1.17 130.501 6.776 142.122L9.181 147.106L6.753 149.15C3.56 151.839 0.162998 158.827 0.162998 162.705C0.162998 169.611 6.415 176.126 18.872 182.2L26.435 185.888L23.753 188.374C21.322 190.628 21.099 191.435 21.367 197.003C21.773 205.429 22.367 205.666 43.163 205.666C63.997 205.666 64.553 205.442 64.961 196.916C65.229 191.301 65.003 190.451 62.664 188.284L60.07 185.879L67.366 182.36C79.57 176.475 86.163 169.583 86.163 162.711C86.163 158.887 81.828 150.121 79.256 148.745C77.414 147.759 77.452 147.47 80.321 140.642C85.376 128.609 86.127 122.724 86.146 94.9452L86.163 69.6952H43.082H0L0.403999 97.9452ZM106.163 70.6252C106.163 71.1372 107.175 71.7001 108.413 71.8752C110.583 72.1842 110.682 72.6591 111.19 85.1952C111.48 92.3452 112.081 98.9562 112.524 99.8852C114.247 103.494 118.401 105.155 125.756 105.175C138.724 105.211 141.194 102.112 142.079 84.6952C142.622 74.0051 142.821 73.1252 144.913 72.2082C148.849 70.4812 147.364 69.6952 140.163 69.6952C136.163 69.6952 133.163 70.1242 133.163 70.6952C133.163 71.2452 134.074 71.6952 135.188 71.6952C138.279 71.6952 139.392 76.0452 138.958 86.4332C138.652 93.7492 138.149 96.2362 136.542 98.3892C133.913 101.911 128.89 103.229 123.853 101.72C118.785 100.202 117.163 96.3401 117.163 85.7922C117.163 76.7032 118.317 72.7292 121.175 71.9822C125.727 70.7912 122.606 69.6952 114.663 69.6952C109.988 69.6952 106.163 70.1142 106.163 70.6252ZM153.163 70.6952C153.163 71.2452 153.806 71.6952 154.592 71.6952C158.323 71.6952 159.163 74.4752 159.163 86.8322C159.163 98.9162 158.321 102.695 155.628 102.695C154.822 102.695 154.163 103.145 154.163 103.695C154.163 104.273 157.33 104.695 161.663 104.695C169.209 104.695 171.51 103.501 166.423 102.224C164.916 101.846 163.348 101.01 162.938 100.366C162.529 99.7222 162.187 94.7011 162.178 89.2092L162.163 79.2242L174.927 91.9592C181.947 98.9641 188.236 104.695 188.902 104.695C189.786 104.695 190.186 100.454 190.388 88.9452C190.654 73.6972 190.735 73.1642 192.913 72.2082C196.857 70.4781 195.36 69.6952 188.104 69.6952C183.653 69.6952 181.273 70.0642 181.663 70.6952C182.003 71.2452 182.914 71.6952 183.687 71.6952C186.219 71.6952 187.163 75.4102 187.163 85.3712V95.1792L175.081 82.4371L162.999 69.6952H158.081C155.376 69.6952 153.163 70.1451 153.163 70.6952ZM201.163 70.5702C201.163 71.0512 202.455 71.7031 204.033 72.0191C207.714 72.7551 208.132 74.4182 208.149 88.3742C208.164 100.239 207.296 102.695 203.092 102.695C202.031 102.695 201.163 103.145 201.163 103.695C201.163 104.291 204.996 104.695 210.663 104.695C215.888 104.695 220.163 104.275 220.163 103.761C220.163 103.248 218.925 102.685 217.413 102.511L214.663 102.195L214.384 88.3322C214.093 73.8902 214.608 71.6952 218.285 71.6952C219.318 71.6952 220.163 71.2452 220.163 70.6952C220.163 70.0992 216.33 69.6952 210.663 69.6952C205.438 69.6952 201.163 70.0891 201.163 70.5702ZM225.163 70.6952C225.163 71.2452 226.03 71.6952 227.09 71.6952C229.913 71.6952 231.886 74.7232 239.663 90.9832C245.926 104.078 249.163 108.579 249.163 104.19C249.163 103.362 252.419 96.3062 256.399 88.5082C261.573 78.3722 264.421 73.8842 266.392 72.7632C267.909 71.9012 269.153 70.8572 269.157 70.4452C269.16 70.0331 266.013 69.6952 262.163 69.6952C255.478 69.6952 252.908 70.8722 257.163 71.9852C258.263 72.2722 259.163 73.1722 259.163 73.9842C259.163 74.7952 256.974 80.0272 254.299 85.6102C248.668 97.3612 249.219 97.4912 242.808 82.8972C238.807 73.7882 238.406 71.6952 240.663 71.6952C241.488 71.6952 242.163 71.2452 242.163 70.6952C242.163 70.1072 238.663 69.6952 233.663 69.6952C228.663 69.6952 225.163 70.1072 225.163 70.6952ZM274.163 70.6952C274.163 71.2452 274.79 71.6952 275.556 71.6952C277.741 71.6952 278.163 74.0452 278.163 86.2122C278.163 98.1692 277.209 102.695 274.688 102.695C273.849 102.695 273.162 103.258 273.161 103.945C273.16 104.911 276.509 105.081 287.911 104.695L302.663 104.195L303.587 100.453C304.813 95.4911 304.016 94.9962 300.483 98.5292C297.135 101.877 290.992 103.341 286.868 101.773C284.309 100.8 284.163 100.391 284.163 94.2202V87.6952H288.729C293.892 87.6952 297.163 89.0662 297.163 91.2302C297.163 92.0362 297.613 92.6952 298.163 92.6952C298.713 92.6952 299.163 90.2202 299.163 87.1952C299.163 81.3842 298.662 80.6301 296.64 83.3961C295.746 84.6191 293.886 85.1111 290.029 85.1461L284.663 85.1952L284.367 79.0132L284.071 72.8312L288.555 72.1591C294.348 71.2901 298.563 72.6732 298.99 75.5812C299.498 79.0452 301.627 77.4661 301.973 73.3681L302.284 69.6952H288.223C279.516 69.6952 274.163 70.0761 274.163 70.6952ZM313.163 70.6952C313.163 71.2452 313.849 71.6952 314.688 71.6952C317.215 71.6952 318.163 76.2281 318.163 88.3082C318.163 99.3452 318.064 99.8832 315.601 102.165L313.039 104.539L321.104 104.867C326.672 105.093 329.167 104.842 329.165 104.053C329.164 103.426 328.038 102.629 326.663 102.284C324.318 101.696 324.163 101.255 324.163 95.1762C324.163 89.4382 324.384 88.6952 326.095 88.6952C327.157 88.6952 329.028 90.1581 330.252 91.9452C336.284 100.756 342.7 105.695 348.113 105.695C352.041 105.695 351.959 104.585 347.891 102.695C346.116 101.87 342.524 98.3541 339.909 94.8821L335.155 88.5692L338.659 85.2642C343.216 80.9662 343.408 76.7861 339.24 72.6181C336.346 69.7242 336.202 69.6952 324.74 69.6952C317.689 69.6952 313.163 70.0862 313.163 70.6952ZM386.163 70.5702C386.163 71.0512 387.452 71.7031 389.028 72.0182C392.545 72.7212 393.169 75.1512 393.149 88.0702C393.132 99.8772 392.62 101.654 389.033 102.371C383.171 103.543 386.456 104.695 395.663 104.695C400.888 104.695 405.163 104.275 405.163 103.761C405.163 103.248 403.925 102.685 402.413 102.511L399.663 102.195L399.384 88.3322C399.093 73.8902 399.608 71.6952 403.285 71.6952C404.318 71.6952 405.163 71.2452 405.163 70.6952C405.163 70.0992 401.33 69.6952 395.663 69.6952C390.438 69.6952 386.163 70.0891 386.163 70.5702ZM452.163 70.5872C452.163 71.0771 453.184 71.7341 454.431 72.0481C456.955 72.6812 467.588 85.0532 469.158 89.1822C470.323 92.2462 470.472 99.7202 469.398 101.223C468.994 101.788 467.538 102.77 466.163 103.405C464.042 104.385 464.99 104.57 472.413 104.627C477.625 104.668 481.163 104.291 481.163 103.695C481.163 103.145 480.038 102.695 478.663 102.695C476.21 102.695 476.163 102.55 476.183 94.9452C476.203 87.3492 476.303 87.0412 481.226 79.4452C483.989 75.1822 486.905 71.6952 487.706 71.6952C488.507 71.6952 489.163 71.2452 489.163 70.6952C489.163 70.1392 486.496 69.6952 483.163 69.6952C479.83 69.6952 477.163 70.1392 477.163 70.6952C477.163 71.2452 478.063 71.6952 479.163 71.6952C480.263 71.6952 481.163 72.2642 481.163 72.9582C481.163 74.5302 474.167 85.0331 473.539 84.4042C471.937 82.8022 465.163 73.1871 465.163 72.5142C465.163 72.0642 466.063 71.6952 467.163 71.6952C468.263 71.6952 469.163 71.2452 469.163 70.6952C469.163 70.1072 465.663 69.6952 460.663 69.6952C455.988 69.6952 452.163 70.0962 452.163 70.5872ZM567.163 70.6952C567.163 71.2452 567.822 71.6952 568.628 71.6952C571.227 71.6952 572.163 75.3512 572.163 85.5042C572.163 97.8551 571.427 101.813 569.011 102.445C564.498 103.625 567.899 104.695 576.163 104.695C581.496 104.695 585.163 104.288 585.163 103.695C585.163 103.145 584.128 102.695 582.863 102.695C581.598 102.695 580.023 102.155 579.363 101.495C577.914 100.046 577.751 89.0682 579.166 88.1932C579.718 87.8521 582.25 87.8851 584.794 88.2672C588.11 88.7642 589.558 89.4892 589.908 90.8282C590.892 94.5922 592.163 92.5452 592.163 87.1952C592.163 84.1702 591.713 81.6952 591.163 81.6952C590.613 81.6952 590.163 82.3612 590.163 83.1762C590.163 84.9572 586.684 85.9612 582.051 85.5191L578.663 85.1952L578.368 79.0652C578.087 73.2042 578.187 72.9062 580.656 72.2862C584.258 71.3822 590.92 73.3721 592.181 75.7291C593.872 78.8881 595.163 78.0071 595.163 73.6952V69.6952H581.163C572.496 69.6952 567.163 70.0761 567.163 70.6952ZM710.163 70.4582C710.163 70.8772 711.176 71.6652 712.413 72.2082C714.55 73.1451 714.678 73.8251 714.952 85.6952C715.29 100.298 714.959 102.208 711.924 103.182C708.977 104.127 710.681 104.499 719.913 104.926C727.63 105.282 728.861 104.615 724.413 102.49C721.905 101.292 721.637 100.627 721.365 94.9361C721.082 88.9971 721.179 88.6972 723.365 88.7332C724.996 88.7602 726.756 90.3452 729.427 94.1932C734.201 101.07 738.992 104.728 744.126 105.417C748.869 106.053 749.417 104.738 745.188 102.866C743.552 102.142 739.949 98.5452 737.182 94.8722C732.762 89.0072 732.353 88.0732 733.819 87.1952C737.701 84.8692 739.163 82.6062 739.148 78.9452C739.13 74.6772 738.646 73.7522 735.19 71.3872C733.228 70.0442 730.393 69.6952 721.44 69.6952C715.238 69.6952 710.163 70.0382 710.163 70.4582ZM793.163 70.6952C793.163 71.2452 793.806 71.6952 794.592 71.6952C798.323 71.6952 799.163 74.4752 799.163 86.8322C799.163 98.9162 798.321 102.695 795.628 102.695C794.822 102.695 794.163 103.145 794.163 103.695C794.163 104.273 797.33 104.695 801.663 104.695C809.209 104.695 811.51 103.501 806.423 102.224C804.916 101.846 803.348 101.01 802.938 100.366C802.529 99.7222 802.187 94.7011 802.178 89.2092L802.163 79.2242L814.927 91.9592C821.947 98.9641 828.236 104.695 828.902 104.695C829.786 104.695 830.186 100.454 830.388 88.9452C830.654 73.6972 830.735 73.1642 832.913 72.2082C836.857 70.4781 835.36 69.6952 828.104 69.6952C823.653 69.6952 821.273 70.0642 821.663 70.6952C822.003 71.2452 822.914 71.6952 823.687 71.6952C826.219 71.6952 827.163 75.4102 827.163 85.3712V95.1792L815.081 82.4371L802.999 69.6952H798.081C795.376 69.6952 793.163 70.1451 793.163 70.6952ZM85.163 86.7062V102.717L43.413 102.456L1.663 102.195L1.388 86.4452L1.112 70.6952H43.138H85.163V86.7062ZM41.679 72.6702C40.871 73.9771 43.172 75.0862 44.317 73.9412C44.957 73.3012 44.765 72.7562 43.762 72.3712C42.918 72.0472 41.98 72.1822 41.679 72.6702ZM333.24 74.6181C334.848 76.2262 336.163 78.2712 336.163 79.1642C336.163 82.1252 331.541 85.6952 327.708 85.6952H324.163V79.3622C324.163 75.8782 324.463 72.7281 324.83 72.3622C326.395 70.7962 330.527 71.9052 333.24 74.6181ZM547.688 75.7192C551.775 79.6802 553.567 85.1402 552.936 91.7072C552.346 97.8492 549.327 101.474 544.109 102.307C533.905 103.937 525.162 86.7701 531.173 76.9101C534.893 70.8092 542.086 70.2902 547.688 75.7192ZM689.265 73.9532C691.134 75.1952 693.676 78.2152 694.913 80.6652C702.682 96.0442 688.842 109.937 677.862 97.7831C666.515 85.2232 676.096 65.2012 689.265 73.9532ZM731.413 74.7752C735.474 79.7452 732.069 85.6952 725.163 85.6952H721.163V80.2772C721.163 72.3472 721.747 71.3671 726.061 72.0582C728.042 72.3752 730.451 73.5982 731.413 74.7752ZM774.094 74.5132C777.343 76.9122 780.312 82.8401 780.907 88.1142C781.558 93.8912 778.921 99.3662 774.464 101.491C762.814 107.047 750.824 87.0241 759.327 76.2132C763.133 71.3752 768.939 70.7072 774.094 74.5132ZM904.64 74.2722C910.511 78.1192 913.642 89.5912 910.467 95.6242C907.674 100.933 904.104 103.094 899.541 102.238C890.378 100.519 884.457 87.1992 888.794 78.0592C891.747 71.8382 898.472 70.2302 904.64 74.2722ZM29.242 75.9142C29.188 77.0852 28.605 77.4532 27.413 77.0692C26.395 76.7421 26.081 76.8602 26.663 77.3512C27.213 77.8151 27.767 79.9952 27.895 82.1952C28.221 87.8362 28.512 89.5592 29.127 89.5051C29.422 89.4791 30.563 89.5182 31.663 89.5922C33.279 89.7002 33.385 89.9022 32.211 90.6441C31.412 91.1501 30.323 91.2942 29.791 90.9651C29.196 90.5982 29.134 91.1051 29.628 92.2812C30.071 93.3342 30.379 95.1952 30.312 96.4172C30.13 99.7271 32.776 100.564 43.219 100.499C53.771 100.433 56.192 99.6612 56.014 96.4172C55.947 95.1952 56.255 93.3342 56.698 92.2812C57.192 91.1051 57.13 90.5982 56.535 90.9651C56.003 91.2942 54.914 91.1501 54.115 90.6441C52.941 89.9022 53.047 89.7002 54.663 89.5922C55.763 89.5182 56.904 89.4791 57.199 89.5051C57.814 89.5592 58.105 87.8362 58.431 82.1952C58.559 79.9952 59.113 77.8151 59.663 77.3512C60.245 76.8602 59.931 76.7421 58.913 77.0692C57.721 77.4532 57.138 77.0852 57.084 75.9142C57.036 74.8702 56.807 74.6861 56.501 75.4452C56.223 76.1332 54.946 76.6952 53.663 76.6952C52.38 76.6952 51.103 76.1332 50.825 75.4452C50.524 74.6982 50.289 74.9002 50.242 75.9452C50.151 77.9632 48.57 78.2902 47.825 76.4452C47.548 75.7571 47.254 76.0942 47.172 77.1952L47.022 79.1952L46.163 77.1952C45.474 75.5912 45.29 75.9371 45.233 78.9452C45.195 81.0082 44.686 82.6952 44.104 82.6952C43.522 82.6952 43.323 82.2452 43.663 81.6952C44.003 81.1451 43.842 80.6952 43.305 80.6952C42.769 80.6952 42.103 81.2582 41.825 81.9452C41.548 82.6332 41.224 81.1702 41.106 78.6952C40.982 76.0992 40.703 75.1791 40.447 76.5211C40.147 78.0951 39.518 78.6611 38.502 78.2711C37.675 77.9541 36.6 77.6952 36.113 77.6952C35.625 77.6952 35.363 77.1332 35.53 76.4452C35.698 75.7582 35.646 75.5331 35.416 75.9452C34.725 77.1812 30.369 76.7912 29.825 75.4452C29.519 74.6861 29.29 74.8702 29.242 75.9142ZM42.163 76.7542C42.163 77.3362 42.613 77.5351 43.163 77.1952C43.713 76.8552 44.163 76.3792 44.163 76.1362C44.163 75.8932 43.713 75.6952 43.163 75.6952C42.613 75.6952 42.163 76.1721 42.163 76.7542ZM34.549 78.5112C34.827 78.9602 33.504 80.0302 31.609 80.8892C29.181 81.9902 28.163 82.1032 28.163 81.2732C28.163 78.5522 33.222 76.3642 34.549 78.5112ZM56.963 78.8951C59.485 81.4172 58.268 82.4992 54.717 80.8892C52.822 80.0302 51.499 78.9602 51.777 78.5112C52.527 77.2972 55.592 77.5241 56.963 78.8951ZM24.663 79.6952C24.323 80.2452 24.522 80.6952 25.104 80.6952C25.686 80.6952 26.163 80.2452 26.163 79.6952C26.163 79.1451 25.965 78.6952 25.722 78.6952C25.479 78.6952 25.003 79.1451 24.663 79.6952ZM39.163 80.6952C40.253 81.3992 40.305 81.6692 39.354 81.6802C38.574 81.6892 38.349 82.2001 38.796 82.9452C39.306 83.7942 39.005 83.7551 37.855 82.8232C34.9 80.4261 35.994 78.6472 39.163 80.6952ZM50.163 80.5732C50.163 81.0552 49.402 82.0682 48.471 82.8232C47.321 83.7551 47.02 83.7942 47.53 82.9452C47.977 82.2001 47.752 81.6892 46.972 81.6802C46.021 81.6692 46.073 81.3992 47.163 80.6952C49.042 79.4812 50.163 79.4352 50.163 80.5732ZM33.163 83.1362C33.163 83.9292 32.713 84.8552 32.163 85.1952C31.613 85.5351 31.163 85.5982 31.163 85.3362C31.163 85.0732 30.89 84.1472 30.556 83.2772C30.158 82.2392 30.501 81.6952 31.556 81.6952C32.44 81.6952 33.163 82.3432 33.163 83.1362ZM56.163 82.7542C56.163 83.3362 55.637 83.4882 54.993 83.0901C54.199 82.5992 54.035 82.9192 54.482 84.0832C54.873 85.1021 54.739 85.5511 54.152 85.1881C52.616 84.2392 52.988 81.6952 54.663 81.6952C55.488 81.6952 56.163 82.1721 56.163 82.7542ZM36.163 84.6382C36.163 85.7072 37.163 87.2822 38.386 88.1382C40.596 89.6861 40.59 89.6952 37.417 89.6952C34.851 89.6952 34.351 89.3691 34.864 88.0312C35.294 86.9121 35.12 86.6041 34.333 87.0901C33.689 87.4882 33.163 87.3362 33.163 86.7542C33.163 86.1721 33.599 85.6952 34.132 85.6952C34.664 85.6952 34.841 85.0201 34.525 84.1952C34.208 83.3702 34.447 82.6952 35.056 82.6952C35.665 82.6952 36.163 83.5692 36.163 84.6382ZM51.801 84.1952C51.485 85.0201 51.662 85.6952 52.194 85.6952C52.727 85.6952 53.163 86.1721 53.163 86.7542C53.163 87.3362 52.637 87.4882 51.993 87.0901C51.206 86.6041 51.032 86.9121 51.462 88.0312C51.974 89.3671 51.477 89.6952 48.94 89.6952C45.943 89.6952 45.88 89.6191 47.722 88.2141C49.414 86.9231 49.47 86.5902 48.163 85.6202C46.888 84.6732 46.926 84.5912 48.413 85.0692C49.541 85.4322 50.163 85.1102 50.163 84.1642C50.163 83.3562 50.661 82.6952 51.27 82.6952C51.879 82.6952 52.118 83.3702 51.801 84.1952ZM44.806 85.1952C45.703 86.0922 45.852 86.6952 45.175 86.6952C44.554 86.6952 44.323 87.1451 44.663 87.6952C45.003 88.2452 44.328 88.6952 43.163 88.6952C41.998 88.6952 41.323 88.2452 41.663 87.6952C42.003 87.1451 41.787 86.6952 41.183 86.6952C40.472 86.6952 40.539 86.1792 41.374 85.2332C42.997 83.3922 43.003 83.3922 44.806 85.1952ZM46.022 90.3172C50.576 91.2282 48.812 92.6952 43.163 92.6952C38.045 92.6952 35.508 91.1502 39.398 90.4032C40.644 90.1632 41.944 89.9062 42.288 89.8312C42.632 89.7562 44.312 89.9752 46.022 90.3172ZM36.698 92.0872C37.887 93.2762 37.652 93.5432 35.082 93.9202C31.56 94.4371 30.355 93.2642 32.892 91.7872C35.167 90.4632 35.066 90.4552 36.698 92.0872ZM54.237 92.9952C54.196 93.3802 53.938 93.6952 53.663 93.6952C53.388 93.6952 52.02 93.6952 50.624 93.6952C48.511 93.6952 48.3 93.4632 49.37 92.3182C50.613 90.9872 54.394 91.5132 54.237 92.9952ZM53.237 95.7351C54.327 96.3181 54.953 97.2262 54.627 97.7532C54.286 98.3052 53.398 98.0732 52.528 97.2031C50.299 94.9742 35.494 95.0852 32.992 97.3502C31.986 98.2602 31.163 98.5122 31.163 97.9092C31.163 94.2032 47.389 92.6051 53.237 95.7351ZM50.998 97.5722C52.781 98.7021 49.172 99.6682 43.163 99.6682C40.688 99.6682 37.612 99.3862 36.328 99.0432C32.343 97.9762 36.03 96.7262 43.163 96.7262C46.738 96.7262 50.264 97.1061 50.998 97.5722ZM21.949 114.195L22.235 121.195L18.949 121.385C17.142 121.49 14.763 121.715 13.663 121.885C11.853 122.166 11.635 121.553 11.367 115.445C11.097 109.278 11.243 108.695 13.058 108.695C14.151 108.695 15.339 108.219 15.698 107.638C16.058 107.056 17.547 106.719 19.007 106.888C21.567 107.184 21.673 107.447 21.949 114.195ZM30.842 107.896L34.163 109.097V115.963C34.163 122.654 34.106 122.809 31.913 122.03C30.676 121.59 28.2 121.256 26.413 121.288L23.163 121.345V115.602C23.163 106.358 24.07 105.447 30.842 107.896ZM61.949 114.195L62.235 121.195L58.949 121.385C57.142 121.49 54.763 121.715 53.663 121.885C51.859 122.165 51.634 121.554 51.372 115.652C51.09 109.315 51.168 109.075 53.872 107.987C55.407 107.37 57.788 106.939 59.163 107.03C61.546 107.187 61.676 107.522 61.949 114.195ZM71.456 107.945C73.991 109.122 74.148 109.591 74.155 116.012C74.163 122.654 74.105 122.809 71.913 122.03C70.676 121.59 68.2 121.256 66.413 121.288L63.163 121.345V115.602C63.163 112.443 63.436 109.147 63.77 108.277C64.499 106.376 67.774 106.235 71.456 107.945ZM16.163 109.695C14.335 110.876 15.914 110.876 18.663 109.695C19.982 109.128 20.152 108.817 19.163 108.781C18.338 108.75 16.988 109.162 16.163 109.695ZM27.663 109.695C30.412 110.876 31.991 110.876 30.163 109.695C29.338 109.162 27.988 108.75 27.163 108.781C26.174 108.817 26.344 109.128 27.663 109.695ZM56.163 109.695C54.335 110.876 55.914 110.876 58.663 109.695C59.982 109.128 60.152 108.817 59.163 108.781C58.338 108.75 56.988 109.162 56.163 109.695ZM65.246 109.054C65.476 109.252 67.013 109.716 68.663 110.085C70.854 110.575 71.258 110.482 70.163 109.741C68.813 108.827 64.243 108.189 65.246 109.054ZM14.454 124.956L20.663 125.31L13.913 125.502L7.163 125.695L7.364 117.445L7.565 109.195L7.905 116.898L8.245 124.602L14.454 124.956ZM9.891 120.445C9.676 122.508 9.499 120.82 9.499 116.695C9.499 112.57 9.676 110.883 9.891 112.945C10.107 115.008 10.107 118.383 9.891 120.445ZM35.891 120.445C35.676 122.508 35.499 120.82 35.499 116.695C35.499 112.57 35.676 110.883 35.891 112.945C36.107 115.008 36.107 118.383 35.891 120.445ZM49.891 120.445C49.676 122.508 49.499 120.82 49.499 116.695C49.499 112.57 49.676 110.883 49.891 112.945C50.107 115.008 50.107 118.383 49.891 120.445ZM77.163 116.695C77.163 120.695 76.734 123.695 76.163 123.695C75.592 123.695 75.163 120.695 75.163 116.695C75.163 112.695 75.592 109.695 76.163 109.695C76.734 109.695 77.163 112.695 77.163 116.695ZM39.163 118.195V125.695H33.288C30.057 125.695 25.894 125.914 24.038 126.181C21.153 126.597 21.026 126.539 23.163 125.781C24.538 125.293 28.251 124.85 31.413 124.795L37.163 124.695V117.695C37.163 113.695 37.592 110.695 38.163 110.695C38.741 110.695 39.163 113.862 39.163 118.195ZM54.456 124.956L60.663 125.31L53.913 125.502L47.163 125.695L47.362 117.945L47.56 110.195L47.905 117.398L48.249 124.602L54.456 124.956ZM78.959 125.183C78.796 125.319 74.613 125.648 69.663 125.914C64.713 126.18 61.788 126.06 63.163 125.646C64.538 125.233 68.476 124.85 71.913 124.795L78.163 124.695L78.362 117.445L78.56 110.195L78.908 117.565C79.099 121.619 79.122 125.047 78.959 125.183ZM16.163 112.695C14.335 113.876 15.914 113.876 18.663 112.695C19.982 112.128 20.152 111.817 19.163 111.781C18.338 111.75 16.988 112.162 16.163 112.695ZM25.246 112.054C25.476 112.252 27.013 112.716 28.663 113.085C30.854 113.575 31.258 113.482 30.163 112.741C28.813 111.827 24.243 111.189 25.246 112.054ZM56.163 112.695C54.335 113.876 55.914 113.876 58.663 112.695C59.982 112.128 60.152 111.817 59.163 111.781C58.338 111.75 56.988 112.162 56.163 112.695ZM65.246 112.054C65.476 112.252 67.013 112.716 68.663 113.085C70.854 113.575 71.258 113.482 70.163 112.741C68.813 111.827 64.243 111.189 65.246 112.054ZM17.976 115.378C18.697 115.667 19.56 115.631 19.892 115.299C20.224 114.967 19.634 114.731 18.58 114.774C17.415 114.822 17.178 115.059 17.976 115.378ZM25.246 115.054C25.476 115.252 27.013 115.716 28.663 116.085C30.854 116.575 31.258 116.482 30.163 115.741C28.813 114.827 24.243 114.189 25.246 115.054ZM57.976 115.378C58.697 115.667 59.56 115.631 59.892 115.299C60.224 114.967 59.634 114.731 58.58 114.774C57.415 114.822 57.178 115.059 57.976 115.378ZM65.246 115.054C65.476 115.252 67.013 115.716 68.663 116.085C70.854 116.575 71.258 116.482 70.163 115.741C68.813 114.827 64.243 114.189 65.246 115.054ZM17.976 118.378C18.697 118.667 19.56 118.631 19.892 118.299C20.224 117.967 19.634 117.731 18.58 117.774C17.415 117.822 17.178 118.059 17.976 118.378ZM27.663 118.695C30.412 119.876 31.991 119.876 30.163 118.695C29.338 118.162 27.988 117.75 27.163 117.781C26.174 117.817 26.344 118.128 27.663 118.695ZM57.976 118.378C58.697 118.667 59.56 118.631 59.892 118.299C60.224 117.967 59.634 117.731 58.58 117.774C57.415 117.822 57.178 118.059 57.976 118.378ZM65.246 118.054C65.476 118.252 67.013 118.716 68.663 119.085C70.854 119.575 71.258 119.482 70.163 118.741C68.813 117.827 64.243 117.189 65.246 118.054ZM21.229 122.73C22.512 123.417 23.782 123.434 25.001 122.782C26.012 122.24 27.925 122.093 29.251 122.454C31.371 123.032 31.179 123.197 27.663 123.818C22.606 124.712 13.808 123.734 16.706 122.601C17.782 122.18 18.805 121.804 18.979 121.765C19.152 121.727 20.165 122.161 21.229 122.73ZM61.229 122.73C62.512 123.417 63.782 123.434 65.001 122.782C66.012 122.24 67.925 122.093 69.251 122.454C71.371 123.032 71.179 123.197 67.663 123.818C62.606 124.712 53.808 123.734 56.706 122.601C57.782 122.18 58.805 121.804 58.979 121.765C59.152 121.727 60.165 122.161 61.229 122.73ZM135.183 125.945C129.78 128.706 127.184 132.117 126.478 137.384C125.744 142.859 128.945 149.982 133.345 152.665C137.659 155.295 147.085 155.442 151.328 152.945C158.091 148.965 160.627 138.659 156.579 131.61C154.332 127.698 147.294 123.695 142.663 123.695C140.971 123.695 137.605 124.707 135.183 125.945ZM203.163 124.655C203.163 124.963 204.063 125.776 205.163 126.463C206.983 127.599 207.163 128.795 207.163 139.735C207.163 149.499 206.881 151.866 205.663 152.333C202.475 153.557 204.403 154.695 209.663 154.695C215.049 154.695 217.358 153.146 212.913 152.515C210.766 152.21 210.65 151.72 210.376 141.762L210.089 131.329L219.876 140.754C225.259 145.937 230.483 151.195 231.486 152.437C232.488 153.679 233.725 154.695 234.236 154.695C234.759 154.695 235.163 148.852 235.163 141.266C235.163 130.392 235.462 127.539 236.734 126.266C238.163 124.838 237.822 124.701 232.984 124.758C228.781 124.808 228.136 125.012 229.913 125.726C232.014 126.57 232.163 127.231 232.163 135.663C232.163 140.63 231.873 144.695 231.518 144.695C231.163 144.695 226.326 140.245 220.768 134.806C212.234 126.453 210.08 124.852 206.913 124.506C204.851 124.281 203.163 124.348 203.163 124.655ZM327.163 124.569C322.045 125.062 321.034 125.416 322.409 126.232C323.777 127.046 324.294 129.228 324.798 136.334C325.539 146.775 324.75 152.695 322.618 152.695C321.818 152.695 321.163 153.195 321.163 153.806C321.163 155.684 341.988 154.462 345.957 152.35C350.617 149.872 353.156 145.232 353.156 139.195C353.156 127.491 344.921 122.858 327.163 124.569ZM369.137 126.282C364.837 137.662 358.572 151.168 356.847 152.775C354.796 154.685 354.813 154.695 360.224 154.643C365.347 154.593 365.539 154.503 363.522 153.093C361.622 151.764 361.501 151.204 362.447 148.12C363.584 144.417 365.778 143.286 370.698 143.867C372.925 144.13 373.747 144.985 374.849 148.185C375.747 150.791 375.867 152.294 375.194 152.518C374.627 152.707 374.163 153.274 374.163 153.778C374.163 154.283 376.723 154.695 379.852 154.695C385.39 154.695 385.489 154.647 383.598 152.885C382.529 151.89 379.463 145.253 376.783 138.135C374.103 131.018 371.534 124.784 371.074 124.282C370.597 123.761 369.765 124.62 369.137 126.282ZM388.163 124.396C388.163 124.56 389.063 125.595 390.163 126.695C391.92 128.452 392.163 130.028 392.163 139.656C392.163 149.644 391.969 150.798 389.974 152.656L387.786 154.695H394.033C397.944 154.695 400.05 154.321 399.663 153.695C399.323 153.145 398.385 152.695 397.579 152.695C395.093 152.695 394.094 147.956 394.799 139.507L395.465 131.527L407.079 143.111C413.467 149.482 419.054 154.695 419.495 154.695C419.937 154.695 420 153.758 419.637 152.613C418.473 148.945 420.251 127.75 421.858 126.143C423.122 124.879 422.634 124.695 418.012 124.695C412.935 124.695 412.809 124.759 414.94 126.252C416.963 127.668 417.163 128.636 417.163 136.985V146.161L406.413 135.525C397.217 126.427 395.121 124.832 391.913 124.493C389.851 124.275 388.163 124.231 388.163 124.396ZM459.375 124.478C449.216 124.733 448.24 124.915 449.625 126.3C450.829 127.504 451.163 130.311 451.163 139.227C451.163 149.656 450.978 150.789 448.974 152.656L446.786 154.695H459.358C471.55 154.695 471.948 154.627 472.533 152.445C473.733 147.965 473.217 147.471 470.086 150.106C467.945 151.908 465.842 152.695 463.168 152.695C456.691 152.695 456.163 152.16 456.163 145.588V139.695H461.041C464.968 139.695 466.225 140.134 467.489 141.945C469.006 144.12 469.059 144.029 469.079 139.195C469.097 134.828 468.931 134.417 467.771 135.945C466.809 137.212 465.025 137.695 461.303 137.695H456.163V132.24C456.163 126.8 456.172 126.784 459.656 126.13C464.449 125.231 468.084 126.325 469.106 128.975C469.845 130.89 470.056 130.965 470.642 129.518C471.016 128.595 471.173 127.02 470.992 126.018C470.693 124.361 469.635 124.221 459.375 124.478ZM584.21 136.859C581.254 144.098 578.01 150.848 576.999 151.859C575.989 152.869 575.163 153.92 575.163 154.195C575.163 154.47 577.301 154.681 579.913 154.663C584.228 154.634 584.492 154.502 582.792 153.214C581.375 152.142 581.091 151.118 581.622 149.002C582.685 144.769 584.036 143.695 588.302 143.695C591.778 143.695 592.377 144.076 593.888 147.245C595.261 150.124 595.351 151.164 594.364 152.745C593.211 154.591 593.444 154.695 598.727 154.695H604.308L602.444 152.325C601.419 151.022 598.355 144.047 595.636 136.825C592.916 129.604 590.442 123.695 590.138 123.695C589.834 123.695 587.166 129.619 584.21 136.859ZM614.434 125.603C608.887 128.194 606.172 132.693 606.167 139.297C606.16 148.486 612.68 154.69 622.348 154.693C628.778 154.696 631.778 153.364 632.585 150.15C633.273 147.408 632.271 145.122 631.424 147.501C630.455 150.221 626.692 152.695 623.521 152.695C615.856 152.695 611.729 147.734 611.709 138.496C611.695 132.055 614.023 127.852 618.487 126.262C622.286 124.909 628.428 126.66 629.65 129.445C630.957 132.423 632.163 132.303 632.163 129.195C632.163 127.82 632.275 126.4 632.413 126.04C632.716 125.247 630.296 124.708 623.663 124.092C620.019 123.753 617.516 124.163 614.434 125.603ZM701.042 126.51C699.782 129.827 699.906 129.988 702.386 128.252C703.608 127.396 706.533 126.695 708.886 126.695H713.163V139.22C713.163 151.659 713.146 151.751 710.663 152.695C709.288 153.218 708.163 153.882 708.163 154.17C708.163 154.459 711.538 154.695 715.663 154.695C719.996 154.695 723.163 154.273 723.163 153.695C723.163 153.145 722.299 152.695 721.242 152.695C718.518 152.695 717.869 148.587 718.712 136.693L719.421 126.695H723.22C725.31 126.695 727.684 127.358 728.494 128.169C729.794 129.468 730.04 129.459 730.566 128.088C732.004 124.341 731.478 124.195 716.54 124.195C702.178 124.195 701.906 124.236 701.042 126.51ZM109.163 125.989L111.663 127.254V144.161V161.068L108.377 161.919C106.57 162.388 105.359 163.204 105.686 163.733C106.907 165.708 110.874 164.589 113.967 161.397L117.163 158.1V143.589C117.163 128.895 117.658 126.642 121.163 125.389C121.988 125.094 119.063 124.824 114.663 124.789C107.585 124.732 106.951 124.87 109.163 125.989ZM165.413 125.775C166.925 126.656 167.163 128.417 167.163 138.706C167.163 149.671 166.989 150.779 164.974 152.656L162.786 154.695L169.724 154.673C176.574 154.651 176.633 154.628 174.354 152.874C172.356 151.337 172.086 150.361 172.354 145.646L172.663 140.195L178.163 139.882C181.188 139.71 185.179 139.853 187.031 140.2L190.399 140.83L189.947 146.281C189.63 150.108 188.925 152.163 187.579 153.181C185.842 154.496 186.271 154.631 192.163 154.631C197.779 154.631 198.425 154.451 196.913 153.303C195.409 152.162 195.163 150.202 195.163 139.384C195.163 128.449 195.393 126.66 196.913 125.775C198.234 125.006 197.075 124.748 192.19 124.725C186.051 124.697 185.832 124.775 187.94 126.252C189.727 127.503 190.163 128.777 190.163 132.752V137.695H181.036H171.909L172.405 132.527C172.734 129.107 173.518 126.909 174.723 126.027C176.309 124.868 175.71 124.699 170.104 124.725C165.241 124.748 164.092 125.005 165.413 125.775ZM261.692 126.367C263.109 127.784 263.31 129.833 263.013 139.824C262.705 150.202 262.424 151.79 260.663 153.12C258.809 154.521 259.118 154.634 264.913 154.663C270.806 154.693 273.004 153.615 269.663 152.333C268.559 151.91 268.163 150.165 268.163 145.726V139.695H275.081C284.863 139.695 285.163 139.896 285.163 146.442C285.163 150.538 284.709 152.319 283.413 153.303C281.901 154.451 282.547 154.631 288.163 154.631C294.19 154.631 294.517 154.521 292.663 153.111C290.839 151.725 290.677 150.521 290.822 139.446C290.957 129.065 291.239 127.112 292.763 125.998C294.294 124.878 293.638 124.699 288.104 124.725C283.524 124.747 282.136 125.032 283.299 125.711C285.165 126.801 286.576 132.82 285.649 135.739C285.098 137.477 284.087 137.695 276.596 137.695H268.163V132.752C268.163 128.777 268.599 127.503 270.386 126.252C272.498 124.772 272.296 124.695 266.314 124.695C260.432 124.695 260.13 124.804 261.692 126.367ZM429.47 125.395C432.168 126.095 433.174 129.905 433.063 139.01C432.937 149.386 432.193 152.106 429.372 152.515C428.157 152.69 427.163 153.253 427.163 153.765C427.163 154.276 430.538 154.695 434.663 154.695C441.769 154.695 444.527 153.547 440.163 152.405C438.303 151.919 438.163 151.041 438.163 139.845C438.163 128.54 438.298 127.714 440.386 126.252C442.477 124.787 442.169 124.702 435.136 124.811C431.026 124.875 428.476 125.138 429.47 125.395ZM480.413 125.775C481.93 126.659 482.163 128.437 482.163 139.138C482.163 149.187 481.884 151.588 480.663 152.057C479.838 152.373 479.163 153.096 479.163 153.664C479.163 154.312 483.437 154.695 490.688 154.695C502.139 154.695 502.219 154.679 503.188 152.13C504.741 148.043 504.345 147.407 501.593 149.572C498.23 152.217 490.704 153.389 488.553 151.603C487.225 150.501 487.02 148.392 487.322 138.901C487.634 129.057 487.944 127.328 489.614 126.107C491.35 124.838 490.893 124.698 485.104 124.725C480.241 124.748 479.092 125.005 480.413 125.775ZM512.618 127.15C510.008 129.759 509.471 133.533 511.239 136.837C511.83 137.942 515.163 140.125 518.645 141.687C525.352 144.696 527.094 147.086 525.183 150.657C523.063 154.618 512.139 152.344 510.643 147.631C509.581 144.287 508.904 146.2 509.629 150.493L510.293 154.426L517.736 154.598C524.455 154.754 525.42 154.529 527.67 152.278C530.432 149.517 531.036 144.235 528.913 141.42C528.226 140.508 525.1 138.639 521.968 137.266C515.108 134.258 513.301 131.659 515.615 128.128C517.959 124.55 522.563 124.841 526.262 128.801L529.163 131.907V128.301V124.695H522.118C515.971 124.695 514.759 125.008 512.618 127.15ZM553.703 126.1C555.409 127.348 555.625 128.818 555.625 139.195C555.625 149.124 555.364 151.075 553.894 152.15C551.025 154.248 551.862 154.695 558.663 154.695C562.33 154.695 565.163 154.259 565.163 153.695C565.163 153.145 564.504 152.695 563.698 152.695C561.28 152.695 559.912 148.856 560.628 144.081C561.255 139.901 561.443 139.695 564.642 139.695C569.03 139.695 571.163 140.567 571.163 142.361C571.163 143.16 571.613 143.535 572.163 143.195C573.402 142.429 573.5 134.695 572.27 134.695C571.779 134.695 571.118 135.37 570.801 136.195C570.393 137.259 568.732 137.695 565.087 137.695C560.813 137.695 560.051 137.429 560.556 136.113C560.89 135.243 561.163 132.816 561.163 130.72C561.163 126.272 562.219 125.625 568.173 126.423C571.173 126.826 572.571 127.54 572.912 128.844C573.675 131.762 575.163 131.002 575.163 127.695V124.695H563.472C553.185 124.695 552.012 124.864 553.703 126.1ZM640.406 125.945C641.698 126.939 642.096 129.497 642.347 138.42C642.632 148.54 642.887 149.868 644.941 151.92C646.903 153.879 648.252 154.195 654.668 154.195C661.408 154.195 662.372 153.941 664.789 151.524C667.258 149.054 667.495 148.075 667.931 138.524C668.264 131.202 668.849 127.686 669.937 126.445C671.375 124.807 671.159 124.697 666.568 124.727C661.969 124.757 661.788 124.853 663.663 126.276C665.422 127.61 665.655 128.919 665.595 137.142C665.514 148.2 664.12 151.237 658.654 152.263C653.777 153.178 649.543 151.223 648.228 147.451C647.097 144.206 646.804 132.633 647.763 129.059C648.079 127.884 649.31 126.452 650.5 125.877C652.237 125.036 651.297 124.817 645.722 124.763C639.977 124.707 639.061 124.91 640.406 125.945ZM678.413 125.775C679.93 126.659 680.163 128.437 680.163 139.138C680.163 149.187 679.884 151.588 678.663 152.057C677.838 152.373 677.163 153.111 677.163 153.695C677.163 154.402 681.084 154.664 688.843 154.477L700.522 154.195L701.31 151.245C702.313 147.486 701.822 147.036 699.38 149.478C696.88 151.978 688.626 153.324 686.519 151.576C685.285 150.551 685.062 148.181 685.332 138.922C685.62 129.025 685.918 127.344 687.604 126.112C689.352 124.836 688.905 124.698 683.104 124.725C678.241 124.748 677.092 125.005 678.413 125.775ZM736.718 125.654C739.335 126.714 744.284 132.339 747.643 138.071C749.882 141.892 750.16 143.236 749.593 147.509C749.102 151.212 748.384 152.758 746.798 153.526C745.126 154.335 746.29 154.56 752.163 154.56C758.061 154.56 759.204 154.338 757.517 153.521C755.377 152.485 754.163 148.939 754.163 143.725C754.163 140.4 760.81 129.866 764.77 126.914L767.663 124.758L762.222 124.727C757.439 124.699 757.002 124.857 758.609 126.032C760.357 127.31 760.317 127.577 757.706 132.032C756.203 134.596 754.624 136.91 754.196 137.175C753.768 137.439 751.795 135.336 749.812 132.502C747.067 128.582 746.468 127.032 747.306 126.022C748.204 124.94 747.138 124.707 741.535 124.758C736.847 124.802 735.316 125.086 736.718 125.654ZM148.364 129.653C153.783 135.599 154.448 145.864 149.721 150.591C142.585 157.728 132.065 149.315 132.198 136.579C132.301 126.738 141.942 122.608 148.364 129.653ZM343.912 130.119C346.685 133.144 347.163 134.41 347.163 138.73C347.163 141.515 346.48 145.114 345.646 146.728C343.242 151.377 336.583 153.945 331.745 152.088C330.421 151.58 330.163 149.474 330.163 139.171C330.163 125.539 330.183 125.498 336.662 126.162C339.67 126.47 341.468 127.451 343.912 130.119ZM781.835 133.738C776.684 137.79 777.498 147.266 783.254 150.242C790.924 154.208 799.163 149.781 799.163 141.695C799.163 135.716 795.026 131.695 788.875 131.695C785.916 131.695 783.566 132.377 781.835 133.738ZM804.111 132.642C805.943 133.801 806.823 145.593 805.291 148.456C804.292 150.323 804.532 150.52 808.246 150.874C811.464 151.181 811.97 151.027 810.726 150.117C809.804 149.443 809.163 147.481 809.163 145.335C809.163 142.015 809.409 141.695 811.963 141.695C813.503 141.695 815.303 142.235 815.963 142.895C816.896 143.828 817.163 143.451 817.163 141.195C817.163 138.939 816.896 138.562 815.963 139.495C815.303 140.155 813.503 140.695 811.963 140.695C809.363 140.695 809.163 140.409 809.163 136.695C809.163 132.939 809.342 132.695 812.092 132.695C813.702 132.695 815.727 133.402 816.592 134.266C818.02 135.695 818.163 135.65 818.163 133.766C818.163 131.848 817.59 131.696 810.413 131.71C805.326 131.72 803.161 132.04 804.111 132.642ZM370.65 136.317C372.722 141.276 372.557 142.698 369.913 142.68C365.64 142.651 365.015 141.481 366.819 136.889C367.725 134.582 368.617 132.695 368.801 132.695C368.985 132.695 369.817 134.325 370.65 136.317ZM591.604 140.51C592.206 142.406 591.925 142.693 589.48 142.68C584.747 142.654 584.237 141.671 586.378 136.695L588.313 132.195L589.612 135.26C590.326 136.945 591.223 139.308 591.604 140.51ZM791.986 134.445C794.649 136.725 796.339 143.101 795.126 146.292C794.618 147.627 793.088 149.228 791.724 149.849C785.076 152.878 778.72 140.138 784.163 134.695C786.627 132.231 789.3 132.146 791.986 134.445ZM53.88 135.365C59.986 138.263 62.723 145.461 60.221 152.042C58.924 155.454 50.814 165.969 47.014 169.167C43.892 171.794 40.158 172.224 39.439 170.039C39.23 169.403 40.464 167.283 42.18 165.328C44.561 162.617 45.938 161.85 47.982 162.099C49.457 162.278 49.848 162.226 48.851 161.982C47.247 161.59 47.353 161.248 49.778 159.001L52.516 156.463L49.324 155.121C45.153 153.367 44.438 151.197 46.667 147.058C47.666 145.202 48.257 143.456 47.98 143.179C47.086 142.285 43.887 150.533 44.504 152.141C44.832 152.996 44.777 153.688 44.382 153.68C42.737 153.645 41.336 152.041 40.9 149.695C40.456 147.306 40.429 147.321 40.299 150.035C40.136 153.433 36.649 156.64 33.163 156.598L30.663 156.568L32.982 155.638C37.315 153.901 33.141 147.115 28.297 148.02C25.795 148.487 22.163 145.74 22.163 143.379C22.163 141.771 29.174 137.695 31.94 137.695C33.043 137.695 35.906 136.805 38.304 135.717C43.662 133.286 49.233 133.16 53.88 135.365ZM50.737 136.391C51.327 136.833 51.735 138.416 51.643 139.907C51.551 141.399 51.863 142.381 52.336 142.088C52.809 141.796 52.937 141.138 52.62 140.626C52.304 140.114 52.482 139.695 53.015 139.695C54.82 139.695 53.49 136.197 51.569 135.891C50.431 135.71 50.096 135.912 50.737 136.391ZM37.663 137.695C37.323 138.245 37.495 138.695 38.045 138.695C38.595 138.695 39.323 138.245 39.663 137.695C40.003 137.145 39.831 136.695 39.281 136.695C38.731 136.695 38.003 137.145 37.663 137.695ZM37.976 140.378C38.697 140.667 39.56 140.631 39.892 140.299C40.224 139.967 39.634 139.731 38.58 139.774C37.415 139.822 37.178 140.059 37.976 140.378ZM56.496 141.151C56.496 141.952 56.871 142.375 57.33 142.092C57.788 141.809 58.163 141.154 58.163 140.636C58.163 140.118 57.788 139.695 57.33 139.695C56.871 139.695 56.496 140.35 56.496 141.151ZM24.163 143.254C24.163 144.111 24.62 144.53 25.179 144.185C25.738 143.839 25.937 143.138 25.62 142.626C24.763 141.239 24.163 141.497 24.163 143.254ZM12.544 152.695C14.283 155.323 14.741 156.695 13.877 156.695C13.154 156.695 12.075 156.207 11.479 155.611C10.7 154.832 9.985 155.111 8.939 156.604C7.192 159.099 6.163 158.355 6.163 154.6C6.163 152.363 8.299 148.695 9.602 148.695C9.764 148.695 11.088 150.495 12.544 152.695ZM80.356 152.413C80.6 153.393 80.526 155.307 80.193 156.666L79.586 159.138L77.884 156.707C76.553 154.806 75.918 154.54 74.972 155.486C74.307 156.151 73.172 156.695 72.449 156.695C71.584 156.695 72.034 155.337 73.764 152.722C75.896 149.5 76.727 148.926 78.153 149.69C79.121 150.208 80.112 151.433 80.356 152.413ZM301.374 149.884C299.735 151.523 299.851 153.191 301.713 154.737C302.994 155.8 303.553 155.733 304.931 154.355C306.489 152.798 306.466 152.554 304.592 150.68C303.021 149.109 302.322 148.936 301.374 149.884ZM33.163 151.578C33.163 152.733 29.306 153.735 28.691 152.741C28.431 152.319 28.505 151.686 28.857 151.334C29.816 150.375 33.163 150.565 33.163 151.578ZM10.581 164.513C13.018 166.759 18.533 170.369 22.837 172.535C32.174 177.233 34.156 179.222 34.879 184.617C35.441 188.801 34.396 189.885 32.271 187.325C31.646 186.572 29.004 185.168 26.399 184.205C18.698 181.358 9.93 176.118 5.878 171.941C1.215 167.133 0.189 162.464 2.729 157.6L4.507 154.195L5.329 157.312C5.781 159.027 8.145 162.267 10.581 164.513ZM47.663 155.622C49.313 156.27 49.036 156.482 46.08 156.831C43.615 157.122 42.496 156.855 42.496 155.975C42.496 154.56 44.596 154.416 47.663 155.622ZM84.156 158.678C87.729 167.303 79.101 176.636 60.962 183.769C58.048 184.915 54.876 186.562 53.913 187.429C52.272 188.907 52.163 188.725 52.163 184.524C52.163 178.998 53.634 177.518 64.866 171.74C73.039 167.537 81.163 160.297 81.163 157.217C81.163 154.686 82.842 155.505 84.156 158.678ZM13.697 160.283C11.381 163.819 11.926 164.572 14.514 161.411L16.792 158.627L21.15 163.795C26.066 169.625 40.845 181.695 43.067 181.695C45.388 181.695 58.757 170.972 64.566 164.45L69.878 158.486L72.031 161.51L74.184 164.533L71.584 166.579C70.154 167.704 65.761 170.159 61.823 172.034C51.726 176.843 50.918 177.966 51.328 186.62L51.663 193.7L42.965 193.697L34.267 193.695L35.337 190.625C36.732 186.623 35.816 180.079 33.498 177.492C32.489 176.366 28.41 173.895 24.435 172.002C20.46 170.109 15.069 166.624 12.455 164.257C8.496 160.674 7.909 159.706 8.939 158.465C9.687 157.564 11.176 157.166 12.704 157.458C15.108 157.918 15.157 158.056 13.697 160.283ZM77.225 161.578C75.716 164.399 74.923 164.251 72.864 160.766C71.166 157.891 71.175 157.831 73.399 157.461C76.757 156.901 78.643 158.93 77.225 161.578ZM5.163 163.554C5.163 164.642 4.866 166.305 4.504 167.25C4.055 168.42 4.267 168.827 5.169 168.526C6.605 168.048 7.232 162.856 5.949 162.063C5.517 161.796 5.163 162.467 5.163 163.554ZM45.976 164.378C46.697 164.667 47.56 164.631 47.892 164.299C48.224 163.967 47.634 163.731 46.58 163.774C45.415 163.822 45.178 164.059 45.976 164.378ZM7.163 165.612C7.163 166.116 7.726 166.732 8.413 166.981C9.399 167.338 9.379 167.912 8.321 169.698C7.198 171.593 7.198 172.102 8.321 172.814C9.059 173.282 10.113 173.636 10.663 173.601C11.213 173.566 11.101 173.31 10.413 173.033C9.726 172.755 9.163 172.089 9.163 171.553C9.163 171.016 9.689 170.902 10.333 171.3C11.134 171.795 11.288 171.464 10.822 170.248C10.286 168.852 10.517 168.612 11.902 169.127C13.021 169.543 12.677 168.855 10.957 167.239C8.073 164.529 7.163 164.138 7.163 165.612ZM43.976 167.378C44.697 167.667 45.56 167.631 45.892 167.299C46.224 166.967 45.634 166.731 44.58 166.774C43.415 166.822 43.178 167.059 43.976 167.378ZM74.83 167.362C74.463 167.728 74.163 169.078 74.163 170.362C74.163 172.184 74.711 172.695 76.663 172.695C78.774 172.695 79.163 172.228 79.163 169.695C79.163 167.453 78.7 166.695 77.33 166.695C76.321 166.695 75.196 166.995 74.83 167.362ZM78.009 170.143C78.229 171.283 77.869 171.764 77.009 171.477C76.268 171.231 75.508 170.227 75.317 169.247C75.097 168.107 75.457 167.626 76.317 167.913C77.058 168.159 77.818 169.163 78.009 170.143ZM12.958 172.729C11.381 175.477 11.397 175.634 13.31 176.242C14.412 176.591 15.58 176.612 15.905 176.286C16.23 175.961 15.695 175.695 14.715 175.695C13.054 175.695 13.042 175.528 14.537 173.247C15.419 171.901 15.796 170.586 15.375 170.326C14.954 170.066 13.866 171.147 12.958 172.729ZM71.663 171.695C72.027 172.842 71.843 173.695 71.23 173.695C70.643 173.695 70.163 173.008 70.163 172.169C70.163 170.83 69.765 170.847 66.913 172.309C62.865 174.383 62.168 175.422 62.294 179.195C62.35 180.859 62.599 181.416 62.852 180.445C63.342 178.571 65.163 178.007 65.163 179.73C65.163 180.422 65.847 180.399 67.224 179.662C69.461 178.465 69.398 176.552 67.101 175.931C65.918 175.612 65.903 175.711 67.02 176.494C67.858 177.081 67.993 177.682 67.375 178.064C65.755 179.065 65.039 175.676 66.551 174.165C67.726 172.989 68.196 173.074 69.703 174.739C72.291 177.599 73.256 177.146 72.99 173.195C72.86 171.27 72.366 169.695 71.891 169.695C71.417 169.695 71.314 170.595 71.663 171.695ZM17.643 174.785C16.667 179.232 18.689 180.949 21.234 177.834C23.357 175.236 23.703 173.695 22.163 173.695C21.613 173.695 21.163 174.315 21.163 175.073C21.163 175.83 20.488 177.01 19.663 177.695C17.859 179.192 17.598 177.619 19.166 174.69C19.768 173.564 19.801 172.589 19.247 172.247C18.74 171.934 18.019 173.076 17.643 174.785ZM264.013 176.584C263.062 179.092 263.772 180.923 264.967 179.042C265.911 177.556 271.648 176.397 274.141 177.188C276.026 177.786 276.163 178.662 276.163 190.154C276.163 202.466 276.16 202.479 273.663 203.106C272.288 203.451 271.163 204.227 271.163 204.831C271.163 205.481 272.08 205.682 273.413 205.325C274.651 204.994 278.138 204.681 281.163 204.63C284.188 204.579 285.988 204.296 285.163 204.001C282.114 202.911 281.163 200.308 281.237 193.254C281.278 189.371 281.625 184.17 282.009 181.695C282.706 177.205 282.716 177.196 286.565 177.43C288.686 177.559 290.968 178.118 291.635 178.671C293.097 179.885 294.163 179.004 294.163 176.58C294.163 174.965 292.787 174.769 279.541 174.496C264.924 174.195 264.92 174.196 264.013 176.584ZM366.334 176.634C365.366 179.411 366.263 180.961 367.593 178.808C368.328 177.619 374.516 176.51 376.395 177.23C378.302 177.962 379.239 186.406 378.452 195.788C377.93 202.015 377.628 202.791 375.516 203.321C374.222 203.646 373.163 204.366 373.163 204.92C373.163 205.478 374.169 205.659 375.413 205.325C376.651 204.994 380.363 204.681 383.663 204.63C388.934 204.548 389.325 204.414 386.884 203.523L384.105 202.509L384.384 189.852L384.663 177.195L389.163 177.487C391.638 177.648 393.813 178.21 393.996 178.737C394.622 180.535 395.929 179.699 396.408 177.195L396.886 174.695H383.606C376.302 174.695 369.668 174.442 368.864 174.134C367.88 173.756 367.052 174.574 366.334 176.634ZM23.692 175.647C23.394 176.13 23.668 176.697 24.3 176.907C25.161 177.194 25.154 177.843 24.271 179.493C23.589 180.767 23.501 181.695 24.06 181.695C24.593 181.695 25.316 180.788 25.668 179.68C26.019 178.572 26.694 177.905 27.166 178.197C27.638 178.489 28.267 178.336 28.563 177.858C28.858 177.379 28.005 176.489 26.667 175.879C25.326 175.268 23.991 175.164 23.692 175.647ZM118.458 176.445C115.478 184.563 108.732 199.722 107.11 201.945L105.103 204.695H109.824C114.066 204.695 114.355 204.556 112.672 203.325C111.098 202.174 110.953 201.416 111.764 198.575C112.683 195.356 112.975 195.181 117.891 194.895L123.053 194.594L124.29 198.723C125.326 202.182 125.294 202.999 124.095 203.758C123.142 204.361 124.585 204.669 128.413 204.68C133.937 204.694 134.093 204.625 132.374 202.906C131.39 201.922 128.388 195.172 125.703 187.906C123.018 180.64 120.434 174.695 119.961 174.695C119.487 174.695 118.811 175.482 118.458 176.445ZM139.163 175.588C139.163 176.079 139.838 176.74 140.663 177.057C141.885 177.526 142.163 179.942 142.163 190.114C142.163 200.946 141.932 202.73 140.413 203.615C139.092 204.384 140.251 204.642 145.136 204.665C151.275 204.693 151.494 204.615 149.386 203.138C147.552 201.854 147.163 200.63 147.163 196.138C147.163 189.334 148.936 188.936 152.479 194.945C153.857 197.283 156.262 200.404 157.824 201.881C161.932 205.769 169.163 208.201 169.163 205.695C169.163 205.145 168.54 204.695 167.779 204.695C166.081 204.695 159.854 197.932 157.678 193.725C156.108 190.689 156.133 190.591 159.122 188.076C162.965 184.842 163.191 180.632 159.708 177.15C157.464 174.905 156.479 174.695 148.208 174.695C143.233 174.695 139.163 175.097 139.163 175.588ZM178.234 176.383C172.734 179.29 170.663 182.931 170.663 189.695C170.663 199.87 176.599 205.068 187.995 204.874C195.001 204.754 197.163 203.464 197.163 199.4C197.163 197.754 196.655 197.934 193.508 200.697C190.412 203.415 189.31 203.818 186.307 203.331C184.247 202.997 181.485 201.478 179.713 199.706C176.858 196.852 176.663 196.179 176.663 189.198C176.663 182.381 176.901 181.502 179.436 178.968C184.106 174.299 193.063 175.55 195.14 181.16C195.795 182.931 195.988 182.764 196.623 179.873C197.025 178.047 197.093 176.292 196.776 175.974C196.458 175.657 192.928 175.211 188.931 174.984C183.258 174.661 180.911 174.968 178.234 176.383ZM205.508 176.524C206.84 177.996 207.163 180.532 207.163 189.524C207.163 199.362 206.924 200.934 205.163 202.695L203.163 204.695L209.413 204.663C214.825 204.636 215.428 204.453 213.913 203.303C212.608 202.312 212.163 200.531 212.163 196.296V190.617L220.913 190.906L229.663 191.195L229.511 196.637C229.401 200.586 228.869 202.437 227.57 203.387C226.029 204.513 226.675 204.691 232.222 204.665C237.085 204.642 238.234 204.385 236.913 203.615C235.399 202.733 235.163 200.963 235.163 190.474C235.163 180.598 235.47 178.014 236.818 176.524C238.405 174.77 238.212 174.695 232.129 174.695H225.786L228.026 176.782C229.84 178.472 230.208 179.753 229.964 183.532L229.663 188.195L220.913 188.484L212.163 188.773V184.316C212.163 178.91 212.921 176.695 214.77 176.695C215.536 176.695 216.163 176.245 216.163 175.695C216.163 175.137 213.445 174.695 210.008 174.695C204.109 174.695 203.922 174.771 205.508 176.524ZM245.413 176.267L248.163 177.759V189.695V201.631L245.413 203.123C242.78 204.552 243.003 204.616 250.663 204.64C257.749 204.663 258.377 204.521 256.163 203.403C253.798 202.21 253.647 201.63 253.361 192.668C252.97 180.448 253.64 176.695 256.208 176.695C257.283 176.695 258.163 176.245 258.163 175.695C258.163 175.111 254.94 174.712 250.413 174.735C242.971 174.773 242.772 174.834 245.413 176.267ZM301.702 176.1C303.414 177.351 303.626 178.838 303.644 189.68C303.661 200.685 303.472 201.995 301.677 203.308C299.908 204.602 301.047 204.729 312.095 204.478L324.5 204.195L325.435 201.383C326.726 197.503 325.608 196.86 323.104 200.042C321.275 202.367 320.302 202.695 315.221 202.695C309.444 202.695 309.423 202.684 308.892 199.409C308.14 194.777 309.066 190.954 311.067 190.43C314.419 189.554 319.405 190.906 319.908 192.827C320.815 196.298 322.163 194.725 322.163 190.195C322.163 185.516 321.285 184.638 319.163 187.195C318.403 188.11 316.212 188.695 313.541 188.695H309.163V182.695V176.695H314.081C320.119 176.695 322.158 177.414 322.178 179.552C322.192 180.978 322.322 180.997 323.163 179.695C323.696 178.87 324.139 177.408 324.148 176.445C324.161 174.873 322.922 174.695 311.972 174.695C301.256 174.695 300.013 174.865 301.702 176.1ZM339.404 176.624C329.463 182.885 329.788 197.068 340.009 203.037C342.478 204.479 345.06 204.958 349.921 204.875C357.221 204.751 357.717 204.487 358.728 200.195L359.434 197.195L356.549 199.874C352.704 203.443 349.247 204.175 344.871 202.347C339.788 200.222 337.848 195.976 338.352 188.071C338.662 183.192 339.283 181.196 341.084 179.279C345.28 174.812 352.586 175.103 356.27 179.883C357.872 181.96 357.88 181.958 358.569 179.214C358.949 177.699 359.014 176.213 358.713 175.912C358.412 175.611 354.678 175.186 350.414 174.968C343.883 174.633 342.15 174.894 339.404 176.624ZM403.974 176.734C405.965 178.588 406.163 179.75 406.163 189.579C406.163 198.978 406.414 200.612 408.09 202.129C412.53 206.147 424.325 205.978 428.466 201.836C430.176 200.126 430.715 197.74 431.536 188.229C432.258 179.867 432.894 176.695 433.848 176.695C434.571 176.695 435.163 176.245 435.163 175.695C435.163 175.145 432.913 174.695 430.163 174.695C427.413 174.695 425.163 175.145 425.163 175.695C425.163 176.245 425.79 176.695 426.556 176.695C428.591 176.695 429.163 178.983 429.163 187.128C429.163 199.42 427.073 202.695 419.229 202.695C412.307 202.695 411.163 200.626 411.163 188.101C411.163 178.349 411.322 177.466 413.163 176.985C417.347 175.891 414.898 174.695 408.474 174.695H401.786L403.974 176.734ZM440.163 175.695C440.163 176.245 440.838 176.695 441.663 176.695C442.919 176.695 443.163 178.801 443.163 189.645C443.163 200.924 442.937 202.727 441.413 203.615C440.088 204.387 441.179 204.642 445.913 204.665L452.163 204.695L450.163 202.695C448.696 201.228 448.163 199.362 448.163 195.695C448.163 189.343 450.021 189.081 453.479 194.945C454.857 197.283 457.262 200.404 458.824 201.881C462.932 205.769 470.163 208.201 470.163 205.695C470.163 205.145 469.54 204.695 468.779 204.695C467.081 204.695 460.854 197.932 458.678 193.725C457.108 190.689 457.133 190.591 460.122 188.076C463.965 184.842 464.191 180.632 460.708 177.15C458.464 174.905 457.479 174.695 449.208 174.695C443.845 174.695 440.163 175.102 440.163 175.695ZM476.541 175.982C478.06 177.093 478.297 178.97 478.274 189.714C478.251 200.469 478.006 202.337 476.469 203.46C474.982 204.548 476.721 204.714 487.107 204.478L499.522 204.195L500.31 201.245C501.361 197.306 500.864 197.085 497.815 200.134C495.696 202.253 494.317 202.695 489.825 202.695C483.804 202.695 483.204 201.962 483.177 194.562C483.165 191.516 483.551 190.854 485.561 190.47C489.906 189.639 494.269 190.819 495.178 193.07C495.835 194.696 496.051 194.044 496.1 190.29C496.16 185.6 496.083 185.458 494.334 187.04C491.951 189.197 484.331 189.297 483.52 187.183C483.201 186.351 483.242 183.651 483.613 181.183L484.286 176.695H489.602C494.594 176.695 498.119 178.406 496.488 180.037C496.126 180.399 496.302 180.695 496.88 180.695C497.794 180.695 499.109 177.654 499.149 175.445C499.157 175.033 493.677 174.695 486.972 174.695C476.788 174.695 475.07 174.907 476.541 175.982ZM536.413 176.087C537.91 177.223 538.163 179.164 538.163 189.506C538.163 199.958 537.927 201.728 536.421 202.57C535.463 203.106 534.912 203.778 535.197 204.062C535.481 204.347 540.859 204.661 547.147 204.761L558.58 204.943L559.476 202.257C560.396 199.496 559.601 197.411 558.359 199.324C556.121 202.77 544.932 204.142 543.77 201.113C542.984 199.064 543.006 188.648 543.811 181.945C544.226 178.493 544.908 176.695 545.802 176.695C546.551 176.695 547.163 176.245 547.163 175.695C547.163 175.132 544.434 174.709 540.913 174.727C535.501 174.754 534.898 174.937 536.413 176.087ZM578.163 175.548C578.163 177.713 567.738 201.12 565.999 202.859C564.218 204.64 564.32 204.693 569.413 204.632C573.735 204.579 574.247 204.402 572.308 203.625C570.726 202.991 570.154 202.162 570.563 201.096C570.898 200.223 571.449 198.404 571.788 197.054C572.354 194.798 572.814 194.623 577.449 194.897C582.222 195.179 582.559 195.383 583.698 198.695C584.503 201.035 584.573 202.609 583.91 203.445C583.142 204.412 584.111 204.695 588.196 204.695C593.201 204.695 593.39 204.603 591.855 202.907C590.965 201.924 588.042 195.31 585.36 188.211C582.678 181.111 579.961 175.128 579.323 174.915C578.685 174.702 578.163 174.987 578.163 175.548ZM598.163 175.454C598.163 175.872 599.063 176.776 600.163 177.463C601.966 178.589 602.163 179.795 602.163 189.703C602.163 199.362 601.92 200.938 600.163 202.695L598.163 204.695L604.413 204.655C610.511 204.616 610.597 204.579 607.926 203.13C604.399 201.216 603.7 198.177 604.784 189.462L605.663 182.394L617.586 194.044C624.143 200.452 629.543 205.692 629.586 205.689C629.628 205.685 629.736 199.577 629.825 192.115C629.961 180.768 630.273 178.231 631.73 176.621C633.432 174.74 633.335 174.697 627.568 174.763C622.547 174.82 622.003 174.994 623.935 175.925C626.81 177.311 627.333 179.469 626.962 188.41L626.663 195.601L615.663 185.158C606.352 176.32 604.164 174.714 601.413 174.706C599.625 174.7 598.163 175.037 598.163 175.454ZM638.163 175.249C638.163 175.648 638.951 176.55 639.913 177.252C641.356 178.306 641.722 180.46 641.999 189.526C642.311 199.723 642.177 200.681 640.161 202.697L637.987 204.871L649.505 204.533C659.251 204.247 661.448 203.878 663.782 202.133C668.737 198.428 670.548 195.1 670.548 189.695C670.548 184.29 668.737 180.962 663.782 177.257C661.452 175.515 659.252 175.143 649.593 174.859C643.307 174.674 638.163 174.85 638.163 175.249ZM681.798 176.768C679.672 178.44 679.163 179.681 679.163 183.195C679.163 188.031 681.792 191.015 687.075 192.176C693.246 193.531 696.535 200.355 692.149 202.703C688.967 204.405 683.042 202.773 679.752 199.288C676.914 196.28 676.851 196.264 677.485 198.695C677.843 200.07 678.142 201.921 678.149 202.807C678.167 204.915 687.213 206.072 692.424 204.633C696.657 203.465 698.163 201.308 698.163 196.416C698.163 192.377 696.157 190.292 688.833 186.718C684.75 184.725 683.598 183.63 683.353 181.508C682.675 175.637 691.037 174.177 695.179 179.442L697.163 181.965V178.33V174.695H690.798C685.873 174.695 683.837 175.164 681.798 176.768ZM712.663 176.49C707.286 179.929 705.811 182.371 705.419 188.482C704.691 199.831 712.694 206.298 725.583 204.776C729.862 204.271 730.625 203.828 731.437 201.383C732.714 197.537 731.614 196.851 729.165 199.966C726.523 203.324 722.313 204.202 717.833 202.33C713.238 200.411 711.02 196.052 711.02 188.941C711.02 182.691 712.976 179.109 717.636 176.827C721.241 175.061 727.599 176.777 729.321 179.98C730.498 182.171 730.519 182.163 731.304 179.245C731.74 177.623 731.887 176.086 731.631 175.83C731.375 175.574 727.678 175.186 723.414 174.968C717.027 174.641 715.135 174.909 712.663 176.49ZM749.511 178.445C741.887 196.886 739.75 201.427 737.981 202.945C735.998 204.647 736.089 204.693 741.302 204.632C745.529 204.582 746.187 204.377 744.413 203.664C741.753 202.595 741.755 202.608 743.612 198.163C744.985 194.877 745.317 194.695 749.944 194.695C754.702 194.695 754.857 194.79 755.96 198.385C756.777 201.046 756.789 202.44 756.005 203.385C755.13 204.44 756.058 204.695 760.763 204.695C766.028 204.695 766.412 204.557 764.636 203.309C763.457 202.481 760.65 196.447 757.663 188.326C754.913 180.848 752.303 174.722 751.862 174.713C751.421 174.703 750.363 176.383 749.511 178.445ZM770.543 176.182C772.13 177.384 772.502 179.385 772.927 189.017C773.398 199.69 773.292 200.566 771.297 202.561L769.163 204.695L775.913 204.632C780.656 204.587 782.037 204.315 780.558 203.717C779.144 203.146 778.253 201.638 777.845 199.125C777.053 194.241 777.503 193.695 782.322 193.695C785.584 193.695 787.018 193.04 789.763 190.295C793.379 186.679 793.739 185.339 792.188 181.261C790.458 176.711 785.674 174.699 776.663 174.731C769.526 174.756 768.866 174.912 770.543 176.182ZM799.413 175.775C800.937 176.662 801.163 178.464 801.163 189.695C801.163 200.919 800.936 202.73 799.413 203.634C798.152 204.381 801.139 204.605 810.093 204.433L822.522 204.195L823.31 201.245C824.361 197.306 823.864 197.085 820.815 200.134C818.696 202.253 817.317 202.695 812.825 202.695C806.804 202.695 806.204 201.962 806.177 194.562C806.165 191.516 806.551 190.854 808.561 190.47C812.906 189.639 817.269 190.819 818.178 193.07C818.835 194.696 819.051 194.044 819.1 190.29C819.16 185.6 819.083 185.458 817.334 187.04C814.951 189.197 807.331 189.297 806.52 187.183C806.201 186.351 806.242 183.651 806.613 181.183L807.286 176.695H812.602C817.594 176.695 821.119 178.406 819.488 180.037C819.126 180.399 819.302 180.695 819.88 180.695C820.794 180.695 822.109 177.654 822.149 175.445C822.157 175.033 816.65 174.709 809.913 174.725C801.102 174.747 798.154 175.042 799.413 175.775ZM930.163 175.249C930.163 175.648 930.942 176.544 931.894 177.24C933.308 178.274 933.694 180.516 934.001 189.493C934.352 199.738 934.229 200.629 932.182 202.676L929.987 204.871L941.505 204.533C951.251 204.247 953.448 203.878 955.782 202.133C960.74 198.426 962.394 195.315 962.394 189.695C962.394 184.075 960.74 180.964 955.782 177.257C953.452 175.515 951.252 175.143 941.593 174.859C935.307 174.674 930.163 174.85 930.163 175.249ZM969.413 176.087C970.91 177.223 971.163 179.163 971.163 189.484C971.163 199.122 970.847 201.869 969.592 203.124C968.163 204.552 969.108 204.695 979.985 204.695C992.638 204.695 993.163 204.495 993.163 199.659C993.163 197.986 992.9 198.049 990.708 200.24C988.704 202.245 987.256 202.695 982.815 202.695C976.671 202.695 976.163 202.125 976.163 195.23C976.163 190.399 977.164 189.73 983.303 190.457C985.771 190.749 987.279 191.582 987.986 193.042C988.865 194.858 989.038 194.428 989.095 190.29C989.16 185.6 989.083 185.458 987.334 187.04C986.182 188.083 983.778 188.695 980.834 188.695H976.163V184.277C976.163 177.244 976.649 176.695 982.864 176.695C987.509 176.695 988.43 177.002 988.873 178.695C989.668 181.735 991.163 181.083 991.163 177.695V174.695L979.413 174.727C969.427 174.754 967.926 174.958 969.413 176.087ZM1003.52 177.065C1001.48 178.821 1000.76 180.353 1000.76 182.972C1000.76 187.489 1002.38 189.372 1008.62 192.139C1011.39 193.367 1014.28 195.114 1015.03 196.02C1016.99 198.403 1015.67 202.529 1012.7 203.275C1009.24 204.143 1003.37 201.944 1001.49 199.075C999.449 195.957 998.862 196.574 999.687 200.973C1000.3 204.249 1000.61 204.486 1004.97 204.977C1015.11 206.119 1020.16 203.381 1020.16 196.745C1020.16 193.677 1019.55 192.353 1017.19 190.369C1015.55 188.991 1012.86 187.567 1011.2 187.203C1007.46 186.382 1004.16 182.408 1004.9 179.606C1006.09 175.054 1013.69 175.291 1017.39 179.996C1019.11 182.187 1019.12 182.181 1019.14 178.445L1019.16 174.695H1012.72C1007.38 174.695 1005.8 175.102 1003.52 177.065ZM1027.81 175.869C1030.3 177.076 1031.17 180.491 1031.15 189.07C1031.13 199.257 1030.28 202.479 1027.29 203.574C1025.22 204.331 1026.37 204.54 1032.66 204.548C1039.12 204.557 1040.23 204.351 1038.41 203.475C1036.26 202.435 1036.16 201.862 1036.16 189.949C1036.16 178.349 1036.3 177.472 1038.16 176.985C1042.51 175.849 1039.79 174.698 1032.91 174.763C1027.16 174.816 1026.1 175.044 1027.81 175.869ZM1053.57 176.581C1042.91 181.466 1042.24 196.505 1052.4 202.7C1054.9 204.22 1057.43 204.685 1063.16 204.678C1074.71 204.662 1074.72 204.657 1074.32 197.646C1074.11 193.814 1074.37 191.695 1075.07 191.695C1075.67 191.695 1076.16 191.245 1076.16 190.695C1076.16 190.139 1073.5 189.695 1070.16 189.695C1066.83 189.695 1064.16 190.139 1064.16 190.695C1064.16 191.245 1065.01 191.695 1066.06 191.695C1070.02 191.695 1070.45 199.804 1066.62 202.317C1064.49 203.708 1063.45 203.797 1060.31 202.857C1053.23 200.737 1049.11 193.175 1051.12 186.01C1052.54 180.959 1054.15 179.015 1058.38 177.249C1062.69 175.448 1068.34 176.684 1070.61 179.924C1072.53 182.665 1073.35 181.861 1072.57 177.989C1071.97 174.975 1071.94 174.962 1064.81 174.833C1059.72 174.741 1056.49 175.244 1053.57 176.581ZM1081.16 175.335C1081.16 175.687 1081.95 176.555 1082.91 177.264C1084.44 178.386 1084.63 180.088 1084.4 190.374C1084.19 200.091 1083.85 202.417 1082.46 203.445C1081.05 204.492 1081.74 204.689 1086.72 204.655C1092.56 204.616 1092.61 204.589 1089.91 203.123C1087.21 201.658 1087.16 201.464 1087.16 192.163C1087.16 186.956 1087.53 182.695 1087.97 182.695C1088.41 182.695 1093.88 187.87 1100.12 194.195C1106.36 200.52 1111.59 205.695 1111.74 205.695C1111.89 205.695 1112.16 199.413 1112.34 191.736C1112.63 179.161 1112.86 177.627 1114.66 176.268C1116.52 174.869 1116.23 174.761 1110.66 174.794C1105.76 174.824 1105.06 175.021 1106.83 175.877C1108.02 176.452 1109.25 177.884 1109.56 179.059C1110.42 182.243 1110.28 195.695 1109.4 195.695C1108.97 195.695 1103.92 190.97 1098.16 185.195C1089.14 176.139 1087.25 174.695 1084.43 174.695C1082.63 174.695 1081.16 174.983 1081.16 175.335ZM153.826 177.172C159.126 180.884 156.967 188.695 150.64 188.695C147.26 188.695 147.163 188.585 147.163 184.76C147.163 179.914 148.677 175.695 150.416 175.695C151.132 175.695 152.667 176.36 153.826 177.172ZM455.708 178.15C460.195 182.636 457.758 188.695 451.466 188.695H447.883L448.448 183.221C448.759 180.21 449.298 177.285 449.647 176.721C450.711 174.999 453.127 175.568 455.708 178.15ZM655.668 176.695C658.286 176.695 663.129 181.856 664.183 185.768C666.449 194.186 660.914 202.968 653.341 202.968C651.181 202.968 648.907 202.655 648.288 202.272C647.556 201.82 647.163 197.395 647.163 189.604C647.163 178.122 647.255 177.593 649.413 176.725C650.65 176.227 652.262 176.017 652.995 176.258C653.727 176.498 654.93 176.695 655.668 176.695ZM785.898 179.799C787.86 183.604 787.412 187.537 784.708 190.24C782.106 192.843 780.536 193.217 778.265 191.779C777.172 191.087 777.019 189.404 777.565 184.072C777.95 180.32 778.764 176.942 779.374 176.564C781.126 175.482 784.546 177.177 785.898 179.799ZM950.899 178.328C955.208 181.016 956.74 185.155 956.314 192.96C956.228 194.541 954.742 197.275 952.844 199.346C950.075 202.367 948.853 202.968 945.469 202.968C943.238 202.968 940.907 202.655 940.288 202.272C939.556 201.82 939.163 197.395 939.163 189.604C939.163 178.114 939.254 177.595 941.413 176.751C944.025 175.729 947.718 176.343 950.899 178.328ZM852.224 189.945C850.392 194.482 848.209 198.982 847.373 199.945C845.964 201.567 846.102 201.694 849.258 201.68C851.703 201.669 852.256 201.407 851.22 200.751C850.052 200.012 850 199.349 850.948 197.267C852.611 193.617 857.671 193.6 858.585 197.241C858.937 198.641 858.959 200.216 858.635 200.741C858.303 201.277 859.588 201.695 861.57 201.695H865.096L863.249 198.445C862.234 196.658 860.341 192.158 859.042 188.445C857.743 184.732 856.428 181.695 856.119 181.695C855.809 181.695 854.057 185.408 852.224 189.945ZM869.756 184.197C871.834 187.368 871.368 199.32 869.111 200.748C868.107 201.383 869.035 201.669 872.136 201.68C876.467 201.695 876.538 201.646 874.386 200.138C872.552 198.854 872.163 197.63 872.163 193.138C872.163 190.144 872.503 187.695 872.918 187.695C873.333 187.695 876.821 190.835 880.668 194.673C884.515 198.511 888 201.661 888.413 201.673C888.826 201.685 889.163 197.735 889.163 192.895C889.163 187.384 889.611 183.647 890.363 182.895C891.296 181.962 890.685 181.702 887.613 181.725C884.444 181.75 884.009 181.957 885.413 182.775C886.781 183.572 887.163 185.143 887.163 189.97V196.145L879.889 188.92C875.188 184.25 871.82 181.695 870.366 181.695C868.196 181.695 868.175 181.783 869.756 184.197ZM895.716 184.445C897.695 188.238 897.616 198.099 895.592 200.124C894.163 201.552 894.622 201.695 900.641 201.695C910.745 201.695 915.163 198.653 915.163 191.695C915.163 184.771 910.737 181.695 900.772 181.695H894.282L895.716 184.445ZM581.089 191.445C581.135 192.221 579.836 192.695 577.663 192.695C573.618 192.695 573.617 192.691 575.861 186.816L577.559 182.37L579.287 186.282C580.237 188.434 581.048 190.758 581.089 191.445ZM753.137 191.445C753.153 192.219 751.789 192.695 749.556 192.695C747.089 192.695 746.096 192.3 746.415 191.445C746.671 190.758 747.502 188.459 748.262 186.337L749.643 182.478L751.377 186.337C752.33 188.459 753.122 190.758 753.137 191.445ZM906.646 183.689C908.192 184.276 909.858 186.115 910.725 188.189C912 191.239 912.004 192.139 910.761 195.115C909.083 199.131 905.939 201.107 902.57 200.261C900.284 199.687 900.163 199.263 900.163 191.843C900.163 182.145 900.725 181.437 906.646 183.689ZM120.508 188.195L122.042 192.695H117.995C114.538 192.695 114.052 192.44 114.658 190.945C115.048 189.982 115.816 187.957 116.363 186.445C117.759 182.589 118.739 183.003 120.508 188.195ZM31.629 188.658C32.606 189.737 33.14 191.312 32.816 192.158C32.059 194.13 27.151 194.159 24.604 192.208C22.705 190.752 22.717 190.677 25.163 188.73C28.314 186.221 29.413 186.209 31.629 188.658ZM61.163 188.73C63.609 190.677 63.621 190.752 61.722 192.208C59.175 194.159 54.267 194.13 53.51 192.158C52.881 190.517 55.743 186.68 57.568 186.717C58.17 186.729 59.788 187.635 61.163 188.73ZM856.618 191.445C857.197 193.362 856.926 193.695 854.782 193.695C852.408 193.695 852.327 193.523 853.339 190.619C854.461 187.402 855.473 187.657 856.618 191.445ZM63.958 198.172C63.521 204.062 61.588 204.666 43.163 204.666C24.738 204.666 22.805 204.062 22.368 198.172L22.072 194.195H43.163H64.254L63.958 198.172ZM29.2 199.097C27.78 202.831 27.948 203.563 29.695 201.254C30.975 199.561 31.163 199.529 31.163 201.004C31.163 201.934 31.643 202.695 32.23 202.695C32.872 202.695 33.027 201.798 32.618 200.445C31.475 196.663 30.302 196.2 29.2 199.097ZM34.987 199.897C35.258 201.711 35.677 202.614 35.918 201.903C36.247 200.937 36.697 200.893 37.706 201.731C38.789 202.63 39.013 202.294 38.841 200.023C38.69 198.016 38.028 197.109 36.561 196.897C34.752 196.636 34.556 197.009 34.987 199.897ZM40.95 199.695C41.26 201.813 41.945 202.695 43.276 202.695C44.706 202.695 45.163 201.968 45.163 199.695C45.163 197.221 44.755 196.695 42.836 196.695C40.82 196.695 40.568 197.095 40.95 199.695ZM47.864 197.327C46.881 198.31 46.986 202.695 47.992 202.695C48.449 202.695 48.786 201.728 48.742 200.546C48.699 199.364 49.289 198.181 50.055 197.916C51.086 197.559 51.316 198.115 50.943 200.064C50.667 201.511 50.858 202.695 51.368 202.695C51.878 202.695 52.153 201.461 51.979 199.954C51.677 197.333 49.346 195.845 47.864 197.327ZM54.163 199.695C54.163 201.345 54.64 202.695 55.222 202.695C55.804 202.695 55.963 202.133 55.575 201.445C55.011 200.445 55.139 200.445 56.216 201.445C56.957 202.133 57.95 202.695 58.422 202.695C58.894 202.695 58.928 202.133 58.497 201.445C58.066 200.758 57.842 199.408 58.001 198.445C58.197 197.251 57.633 196.695 56.226 196.695C54.6 196.695 54.163 197.331 54.163 199.695ZM508.096 202.276C507.035 203.554 507.025 204.244 508.041 205.872C509.082 207.538 509.028 208.187 507.731 209.62C505.54 212.041 505.777 212.972 508.248 211.65C511.179 210.081 513.638 203.973 512.09 202.108C510.582 200.29 509.714 200.326 508.096 202.276ZM831.096 202.276C830.035 203.554 830.025 204.244 831.041 205.872C832.093 207.555 832.015 208.201 830.571 209.797C828.132 212.491 829.36 213.115 832.398 210.725C835.407 208.358 836.736 204.09 835.084 202.099C833.582 200.29 832.712 200.328 831.096 202.276Z" fill="white"/>
</svg>
