<svg width="38" height="38" viewBox="0 0 38 38" fill="none" xmlns="http://www.w3.org/2000/svg">
<path d="M33.6883 19.1811C33.6883 27.1516 27.2268 33.6131 19.2563 33.6131C11.2857 33.6131 4.82422 27.1516 4.82422 19.1811C4.82422 11.2105 11.2857 4.74902 19.2563 4.74902C27.2268 4.74902 33.6883 11.2105 33.6883 19.1811Z" fill="white"/>
<path fill-rule="evenodd" clip-rule="evenodd" d="M37.6883 19.1811C37.6883 29.3608 29.436 37.6131 19.2563 37.6131C9.07652 37.6131 0.824219 29.3608 0.824219 19.1811C0.824219 9.00133 9.07652 0.749023 19.2563 0.749023C29.436 0.749023 37.6883 9.00133 37.6883 19.1811ZM19.2563 33.6131C27.2268 33.6131 33.6883 27.1516 33.6883 19.1811C33.6883 11.2105 27.2268 4.74902 19.2563 4.74902C11.2857 4.74902 4.82422 11.2105 4.82422 19.1811C4.82422 27.1516 11.2857 33.6131 19.2563 33.6131Z" fill="#171717"/>
<path d="M21.4526 26.1813V12.7812H18.7326C18.0926 13.9813 17.3126 14.4413 16.0526 14.4413H15.4526V16.5812H18.4726V26.1813H21.4526Z" fill="black"/>
</svg>
