<svg width="38" height="38" viewBox="0 0 38 38" fill="none" xmlns="http://www.w3.org/2000/svg">
<path d="M33.5525 19.1806C33.5525 27.1512 27.0911 33.6126 19.1205 33.6126C11.1499 33.6126 4.68848 27.1512 4.68848 19.1806C4.68848 11.21 11.1499 4.74854 19.1205 4.74854C27.0911 4.74854 33.5525 11.21 33.5525 19.1806Z" fill="white"/>
<path fill-rule="evenodd" clip-rule="evenodd" d="M37.5525 19.1806C37.5525 29.3603 29.3002 37.6126 19.1205 37.6126C8.94078 37.6126 0.688477 29.3603 0.688477 19.1806C0.688477 9.00084 8.94078 0.748535 19.1205 0.748535C29.3002 0.748535 37.5525 9.00084 37.5525 19.1806ZM19.1205 33.6126C27.0911 33.6126 33.5525 27.1512 33.5525 19.1806C33.5525 11.21 27.0911 4.74854 19.1205 4.74854C11.1499 4.74854 4.68848 11.21 4.68848 19.1806C4.68848 27.1512 11.1499 33.6126 19.1205 33.6126Z" fill="#171717"/>
<path d="M24.3521 26.1806V23.4806H19.2321L17.0721 23.5206C17.0721 22.8806 17.8921 22.4606 18.9921 21.9606L21.0121 21.0806C22.7521 20.3006 24.3921 19.1206 24.3921 16.8006C24.3921 14.3806 22.9721 12.5806 19.4321 12.5806C15.4521 12.5806 13.8521 14.7206 13.8521 17.3206V17.6406H16.8521V17.3006C16.8521 15.8606 17.2521 15.3206 19.1921 15.3206C20.9721 15.3206 21.4121 15.8606 21.4121 16.8206C21.4121 17.7006 20.9921 18.1406 19.8121 18.7006L17.4921 19.8006C15.6321 20.7006 13.8721 21.7806 13.8721 24.3806V26.1806H24.3521Z" fill="black"/>
</svg>
