<svg width="38" height="38" viewBox="0 0 38 38" fill="none" xmlns="http://www.w3.org/2000/svg">
<path d="M33.4168 19.1806C33.4168 27.1512 26.9554 33.6126 18.9848 33.6126C11.0142 33.6126 4.55273 27.1512 4.55273 19.1806C4.55273 11.21 11.0142 4.74854 18.9848 4.74854C26.9554 4.74854 33.4168 11.21 33.4168 19.1806Z" fill="white"/>
<path fill-rule="evenodd" clip-rule="evenodd" d="M37.4168 19.1806C37.4168 29.3603 29.1645 37.6126 18.9848 37.6126C8.80504 37.6126 0.552734 29.3603 0.552734 19.1806C0.552734 9.00084 8.80504 0.748535 18.9848 0.748535C29.1645 0.748535 37.4168 9.00084 37.4168 19.1806ZM18.9848 33.6126C26.9554 33.6126 33.4168 27.1512 33.4168 19.1806C33.4168 11.21 26.9554 4.74854 18.9848 4.74854C11.0142 4.74854 4.55273 11.21 4.55273 19.1806C4.55273 27.1512 11.0142 33.6126 18.9848 33.6126Z" fill="#171717"/>
<path d="M19.0141 26.3806C22.3941 26.3806 24.5341 25.1006 24.5341 22.5006C24.5341 20.5206 23.3741 19.3606 21.4541 19.1806V19.0606C23.2141 18.8606 23.9741 17.7806 23.9741 16.2006C23.9741 13.8006 22.0541 12.5806 18.8941 12.5806C15.4541 12.5806 13.4741 14.2206 13.4741 16.8806V17.1006H16.4141V16.9206C16.4141 15.7006 17.0341 15.3406 18.8141 15.3406C20.2141 15.3406 20.9741 15.7006 20.9741 16.7606C20.9741 17.8406 20.5141 18.0806 19.3141 18.0806H16.8141V20.5206H19.6341C20.9341 20.5206 21.4941 20.7806 21.4941 22.1006C21.4941 23.3406 20.6541 23.6206 19.0141 23.6206C16.8741 23.6206 16.4141 23.2606 16.4141 22.0406V21.6406H13.4741V22.0806C13.4741 24.7406 14.9741 26.3806 19.0141 26.3806Z" fill="black"/>
</svg>
