<svg width="38" height="38" viewBox="0 0 38 38" fill="none" xmlns="http://www.w3.org/2000/svg">
<path d="M33.6883 19.0448C33.6883 27.0154 27.2268 33.4769 19.2563 33.4769C11.2857 33.4769 4.82422 27.0154 4.82422 19.0448C4.82422 11.0742 11.2857 4.61279 19.2563 4.61279C27.2268 4.61279 33.6883 11.0742 33.6883 19.0448Z" fill="white"/>
<path fill-rule="evenodd" clip-rule="evenodd" d="M37.6883 19.0448C37.6883 29.2246 29.436 37.4769 19.2563 37.4769C9.07652 37.4769 0.824219 29.2246 0.824219 19.0448C0.824219 8.8651 9.07652 0.612793 19.2563 0.612793C29.436 0.612793 37.6883 8.8651 37.6883 19.0448ZM19.2563 33.4769C27.2268 33.4769 33.6883 27.0154 33.6883 19.0448C33.6883 11.0742 27.2268 4.61279 19.2563 4.61279C11.2857 4.61279 4.82422 11.0742 4.82422 19.0448C4.82422 27.0154 11.2857 33.4769 19.2563 33.4769Z" fill="#171717"/>
<path d="M22.9926 26.045V23.505H24.9126V20.805H22.9926V12.645H19.5126L12.4326 21.405V23.505H19.9926V26.045H22.9926ZM16.2126 20.805V20.605L19.8126 16.285H19.9926V20.805H16.2126Z" fill="black"/>
</svg>
