<svg width="38" height="38" viewBox="0 0 38 38" fill="none" xmlns="http://www.w3.org/2000/svg">
<path d="M33.5525 19.0448C33.5525 27.0154 27.0911 33.4769 19.1205 33.4769C11.1499 33.4769 4.68848 27.0154 4.68848 19.0448C4.68848 11.0742 11.1499 4.61279 19.1205 4.61279C27.0911 4.61279 33.5525 11.0742 33.5525 19.0448Z" fill="white"/>
<path fill-rule="evenodd" clip-rule="evenodd" d="M37.5525 19.0448C37.5525 29.2246 29.3002 37.4769 19.1205 37.4769C8.94078 37.4769 0.688477 29.2246 0.688477 19.0448C0.688477 8.8651 8.94078 0.612793 19.1205 0.612793C29.3002 0.612793 37.5525 8.8651 37.5525 19.0448ZM19.1205 33.4769C27.0911 33.4769 33.5525 27.0154 33.5525 19.0448C33.5525 11.0742 27.0911 4.61279 19.1205 4.61279C11.1499 4.61279 4.68848 11.0742 4.68848 19.0448C4.68848 27.0154 11.1499 33.4769 19.1205 33.4769Z" fill="#171717"/>
<path d="M19.4298 26.245C23.4898 26.245 25.0698 24.285 25.0698 21.545C25.0698 18.885 23.4898 17.225 20.5298 17.225C18.7098 17.225 17.5498 17.785 17.0298 18.265H16.9498L17.1698 15.345H24.3498V12.645H14.5098L14.1098 20.085L16.7698 20.445C17.2098 20.185 18.1898 19.765 19.5298 19.765C21.4098 19.765 22.1298 20.245 22.1298 21.645C22.1298 23.005 21.4698 23.505 19.5698 23.505C17.7898 23.505 16.9898 23.185 16.9898 22.205V22.045H14.0098V22.205C14.0098 24.685 15.8098 26.245 19.4298 26.245Z" fill="black"/>
</svg>
