<svg width="38" height="38" viewBox="0 0 38 38" fill="none" xmlns="http://www.w3.org/2000/svg">
<path d="M33.4168 19.0448C33.4168 27.0154 26.9554 33.4769 18.9848 33.4769C11.0142 33.4769 4.55273 27.0154 4.55273 19.0448C4.55273 11.0742 11.0142 4.61279 18.9848 4.61279C26.9554 4.61279 33.4168 11.0742 33.4168 19.0448Z" fill="white"/>
<path fill-rule="evenodd" clip-rule="evenodd" d="M37.4168 19.0448C37.4168 29.2246 29.1645 37.4769 18.9848 37.4769C8.80504 37.4769 0.552734 29.2246 0.552734 19.0448C0.552734 8.8651 8.80504 0.612793 18.9848 0.612793C29.1645 0.612793 37.4168 8.8651 37.4168 19.0448ZM18.9848 33.4769C26.9554 33.4769 33.4168 27.0154 33.4168 19.0448C33.4168 11.0742 26.9554 4.61279 18.9848 4.61279C11.0142 4.61279 4.55273 11.0742 4.55273 19.0448C4.55273 27.0154 11.0142 33.4769 18.9848 33.4769Z" fill="#171717"/>
<path d="M19.32 26.2448C22.9 26.2448 24.78 24.5248 24.78 21.8248C24.78 19.2848 23.28 17.7648 20.34 17.7648C18.32 17.7648 17.28 18.4448 16.7 19.3248H16.6V18.1648C16.6 16.2648 17.06 15.3448 19.08 15.3448C20.62 15.3448 21.26 15.7448 21.26 16.7248V16.8448H24.44V16.6848C24.44 14.0848 22.58 12.4448 19.48 12.4448C15.52 12.4448 13.5 14.8248 13.5 19.1248C13.5 23.8448 15.04 26.2448 19.32 26.2448ZM19.36 23.3648C17.46 23.3648 16.86 22.9248 16.86 21.7648C16.86 20.6248 17.46 20.1848 19.36 20.1848C21.26 20.1848 21.84 20.6248 21.84 21.7648C21.84 22.9248 21.26 23.3648 19.36 23.3648Z" fill="black"/>
</svg>
