<svg width="60" height="38" viewBox="0 0 60 38" fill="none" xmlns="http://www.w3.org/2000/svg">
<path d="M4.82422 19.3187C4.82422 11.3492 11.2847 4.88867 19.2542 4.88867H40.6892C48.6587 4.88867 55.1192 11.3492 55.1192 19.3187V19.3187C55.1192 27.2881 48.6587 33.7487 40.6892 33.7487H19.2542C11.2847 33.7487 4.82422 27.2881 4.82422 19.3187V19.3187Z" fill="white"/>
<path fill-rule="evenodd" clip-rule="evenodd" d="M19.2542 0.888672H40.6892C50.8679 0.888672 59.1192 9.14008 59.1192 19.3187C59.1192 29.4973 50.8678 37.7487 40.6892 37.7487H19.2542C9.07559 37.7487 0.824219 29.4973 0.824219 19.3187C0.824219 9.14007 9.07561 0.888672 19.2542 0.888672ZM19.2542 4.88867C11.2847 4.88867 4.82422 11.3492 4.82422 19.3187C4.82422 27.2881 11.2847 33.7487 19.2542 33.7487H40.6892C48.6587 33.7487 55.1192 27.2881 55.1192 19.3187C55.1192 11.3492 48.6587 4.88867 40.6892 4.88867H19.2542Z" fill="black"/>
<path d="M25.4735 25.3189L26.5735 22.3389H32.2535L33.3335 25.3189H36.5935L31.6535 11.9189H27.2935L22.3535 25.3189H25.4735ZM28.3135 17.5789L29.3335 14.5589H29.5335L30.5135 17.5789L31.2735 19.6589H27.5535L28.3135 17.5789Z" fill="black"/>
</svg>
