<svg width="59" height="38" viewBox="0 0 59 38" fill="none" xmlns="http://www.w3.org/2000/svg">
<path d="M4.12207 19.3187C4.12207 11.3492 10.5826 4.88867 18.5521 4.88867H39.9871C47.9566 4.88867 54.4171 11.3492 54.4171 19.3187V19.3187C54.4171 27.2881 47.9565 33.7487 39.9871 33.7487H18.552C10.5826 33.7487 4.12207 27.2881 4.12207 19.3187V19.3187Z" fill="white"/>
<path fill-rule="evenodd" clip-rule="evenodd" d="M18.5521 0.888672H39.9871C50.1657 0.888672 58.4171 9.14008 58.4171 19.3187C58.4171 29.4973 50.1657 37.7487 39.9871 37.7487H18.552C8.37344 37.7487 0.12207 29.4973 0.12207 19.3187C0.12207 9.14007 8.37346 0.888672 18.5521 0.888672ZM18.5521 4.88867C10.5826 4.88867 4.12207 11.3492 4.12207 19.3187C4.12207 27.2881 10.5826 33.7487 18.552 33.7487H39.9871C47.9565 33.7487 54.4171 27.2881 54.4171 19.3187C54.4171 11.3492 47.9566 4.88867 39.9871 4.88867H18.5521Z" fill="black"/>
<path d="M31.6256 25.3189C34.6856 25.3189 36.2456 23.8989 36.2456 21.6389C36.2456 19.8389 35.1856 18.4789 33.0256 18.3189V18.1189C34.8056 17.8989 35.7056 16.8589 35.7056 15.2589C35.7056 12.9389 34.1656 11.9189 31.3056 11.9189H24.7056V25.3189H31.6256ZM27.7056 14.6189H31.1056C32.2056 14.6189 32.7056 14.8389 32.7056 15.9189C32.7056 16.9789 32.2256 17.2189 31.1056 17.2189H27.7056V14.6189ZM27.7056 19.6589H31.5256C32.6456 19.6589 33.2256 19.8589 33.2256 21.1589C33.2256 22.4189 32.6256 22.6189 31.5256 22.6189H27.7056V19.6589Z" fill="black"/>
</svg>
