<svg width="471" height="301" viewBox="0 0 471 301" fill="none" xmlns="http://www.w3.org/2000/svg">
<path fill-rule="evenodd" clip-rule="evenodd" d="M147.642 26.2021L16.2099 150.78L147.642 275.358V215.478H459.002V86.082H147.642V26.2021Z" fill="#F13F3F"/>
<path fill-rule="evenodd" clip-rule="evenodd" d="M10.3953 150.78L151.642 16.8994V82.082H463.002V219.478H151.642V284.661L10.3953 150.78ZM147.642 215.478H459.002V86.082H147.642V26.2021L16.2099 150.78L147.642 275.358V215.478Z" fill="black"/>
<path fill-rule="evenodd" clip-rule="evenodd" d="M10.3953 150.78L151.642 16.8994V82.082H463.002V219.478H151.642V284.661L10.3953 150.78ZM147.642 215.478H459.002V86.082H147.642V26.2021L16.2099 150.78L147.642 275.358V215.478Z" fill="#171717"/>
<path fill-rule="evenodd" clip-rule="evenodd" d="M4.58075 150.78L155.642 7.59668V78.082H467.002V223.478H155.642V293.964L4.58075 150.78ZM143.642 211.478H455.002V90.082H143.642V35.5049L22.0244 150.78L143.642 266.055V211.478ZM147.642 275.358L16.2099 150.78L147.642 26.2021V86.082H459.002V215.478H147.642V275.358ZM151.642 16.8994V82.082H463.002V219.478H151.642V284.661L10.3953 150.78L151.642 16.8994Z" fill="black"/>
<path fill-rule="evenodd" clip-rule="evenodd" d="M6.03442 150.78L154.642 9.92236V79.082H466.002V222.478H154.642V291.638L6.03442 150.78ZM147.642 215.478H459.002V86.082H147.642V26.2021L16.2099 150.78L147.642 275.358V215.478ZM151.642 16.8994V82.082H463.002V219.478H151.642V284.661L10.3953 150.78L151.642 16.8994ZM144.642 268.381V212.478H456.002V89.082H144.642V33.1792L20.5708 150.78L144.642 268.381Z" fill="#171717"/>
<path fill-rule="evenodd" clip-rule="evenodd" d="M0.219849 150.78L158.642 0.619629V75.082H470.002V226.478H158.642V300.941L0.219849 150.78ZM154.642 222.478H466.002V79.082H154.642V9.92236L6.0344 150.78L154.642 291.638V222.478ZM151.642 219.478H463.002V82.082H151.642V16.8994L10.3953 150.78L151.642 284.661V219.478ZM147.642 215.478H459.002V86.082H147.642V26.2021L16.2099 150.78L147.642 275.358V215.478ZM144.642 212.478H456.002V89.082H144.642V33.1792L20.5708 150.78L144.642 268.381V212.478ZM452.002 208.478H140.642V259.078L26.3853 150.78L140.642 42.4819V93.082H452.002V208.478Z" fill="black"/>
<path d="M171.482 174.93C179.812 174.93 183.522 170.66 184.922 167.09H185.342V174.23H195.072V149.31H172.182V158.06H184.992C184.992 163.66 181.702 164.92 174.282 164.92C165.462 164.92 161.892 162.05 161.892 150.78C161.892 139.72 165.252 136.78 173.302 136.78C180.932 136.78 183.802 138.81 183.802 144.69V144.97H194.932V144.62C194.932 133.49 187.442 126.63 173.512 126.63C159.232 126.63 150.692 136.15 150.692 150.78C150.692 165.76 158.042 174.93 171.482 174.93Z" fill="white"/>
<path d="M218.517 174.93C229.787 174.93 236.367 167.79 236.367 156.66C236.367 145.46 229.787 138.32 218.517 138.32C207.177 138.32 200.457 145.46 200.457 156.66C200.457 167.79 207.177 174.93 218.517 174.93ZM218.517 165.69C212.777 165.69 210.817 163.45 210.817 156.66C210.817 149.8 212.777 147.56 218.517 147.56C224.187 147.56 226.147 149.8 226.147 156.66C226.147 163.45 224.187 165.69 218.517 165.69Z" fill="white"/>
<path d="M279.191 174.23C289.901 174.23 295.361 169.26 295.361 161.35C295.361 155.05 291.651 150.29 284.091 149.73V149.03C290.321 148.26 293.471 144.62 293.471 139.02C293.471 130.9 288.081 127.33 278.071 127.33H254.971V174.23H279.191ZM265.471 136.78H277.371C281.221 136.78 282.971 137.55 282.971 141.33C282.971 145.04 281.291 145.88 277.371 145.88H265.471V136.78ZM265.471 154.42H278.841C282.761 154.42 284.791 155.12 284.791 159.67C284.791 164.08 282.691 164.78 278.841 164.78H265.471V154.42Z" fill="white"/>
<path d="M310.158 174.93C316.668 174.93 320.238 172.06 322.128 169.47H322.548V174.23H332.278V153.37C332.278 143.99 326.818 138.32 316.458 138.32C306.518 138.32 300.008 143.85 300.008 152.25V153.02H310.018V152.25C310.018 148.68 311.698 147.49 315.968 147.49C320.098 147.49 322.338 148.26 322.338 152.39V153.51L310.298 155.33C303.018 156.45 299.098 159.81 299.098 165.27C299.098 171.64 303.928 174.93 310.158 174.93ZM309.108 164.43C309.108 162.96 310.088 162.26 312.258 161.91L322.338 160.37C322.338 165.83 317.928 166.95 313.658 166.95C310.578 166.95 309.108 166.32 309.108 164.43Z" fill="white"/>
<path d="M354.889 174.93C364.619 174.93 371.689 169.19 371.689 160.51V159.67H361.189V160.23C361.189 164.22 358.949 165.55 354.609 165.55C349.569 165.55 347.399 163.17 347.399 156.66C347.399 150.08 349.569 147.7 354.609 147.7C358.949 147.7 361.189 149.03 361.189 153.02V153.58H371.689V152.74C371.689 144.06 364.829 138.32 355.449 138.32C343.689 138.32 337.039 145.46 337.039 156.73C337.039 167.86 343.269 174.93 354.889 174.93Z" fill="white"/>
<path d="M386.942 174.23V161.42H392.332L400.032 174.23H412.072L400.662 155.82L412.142 139.02H400.102L392.122 152.04H386.942V127.33H376.512V174.23H386.942Z" fill="white"/>
</svg>
