<svg width="129" height="39" viewBox="0 0 129 39" fill="none" xmlns="http://www.w3.org/2000/svg">
<path d="M53.1182 26.3142C55.4982 26.3142 56.5582 25.0942 56.9582 24.0742H57.0782V26.1142H59.8582V18.9942H53.3182V21.4942H56.9782C56.9782 23.0942 56.0382 23.4542 53.9182 23.4542C51.3982 23.4542 50.3782 22.6342 50.3782 19.4142C50.3782 16.2542 51.3382 15.4142 53.6382 15.4142C55.8182 15.4142 56.6382 15.9942 56.6382 17.6742V17.7542H59.8182V17.6542C59.8182 14.4742 57.6782 12.5142 53.6982 12.5142C49.6182 12.5142 47.1782 15.2342 47.1782 19.4142C47.1782 23.6942 49.2782 26.3142 53.1182 26.3142Z" fill="black"/>
<path d="M68.917 26.3142C72.917 26.3142 75.337 23.5942 75.337 19.4142C75.337 15.2342 72.917 12.5142 68.917 12.5142C64.917 12.5142 62.477 15.2342 62.477 19.4142C62.477 23.5942 64.917 26.3142 68.917 26.3142ZM68.917 23.4142C66.617 23.4142 65.677 22.5542 65.677 19.4142C65.677 16.2742 66.617 15.4142 68.917 15.4142C71.217 15.4142 72.137 16.2742 72.137 19.4142C72.137 22.5542 71.217 23.4142 68.917 23.4142Z" fill="black"/>
<path d="M81.4176 21.7142C81.4176 20.0942 81.8576 15.6542 81.8576 14.1142V12.7142H77.9976V14.1142C77.9976 15.6542 78.4176 20.0742 78.4176 21.7142H81.4176ZM81.6376 26.1142V22.8542H78.2176V26.1142H81.6376Z" fill="black"/>
<path fill-rule="evenodd" clip-rule="evenodd" d="M109.653 4.54932H19.3831C11.1734 4.54932 4.51807 11.2046 4.51807 19.4143C4.51807 27.624 11.1734 34.2793 19.3831 34.2793H109.653C117.863 34.2793 124.518 27.624 124.518 19.4143C124.518 11.2046 117.863 4.54932 109.653 4.54932ZM19.3831 0.549316C8.96421 0.549316 0.518066 8.99547 0.518066 19.4143C0.518066 29.8332 8.96422 38.2793 19.3831 38.2793H109.653C120.072 38.2793 128.518 29.8332 128.518 19.4143C128.518 8.99547 120.072 0.549316 109.653 0.549316H19.3831Z" fill="black"/>
</svg>
