<svg width="499" height="733" viewBox="0 0 499 733" fill="none" xmlns="http://www.w3.org/2000/svg">
<path d="M139.919 180.631C139.919 164.063 153.351 150.631 169.919 150.631H329.283C345.852 150.631 359.283 164.063 359.283 180.631V559.106C359.283 575.674 345.852 589.106 329.283 589.106H169.919C153.351 589.106 139.919 575.674 139.919 559.106V180.631Z" fill="white"/>
<path fill-rule="evenodd" clip-rule="evenodd" d="M169.919 136.631H329.283C353.584 136.631 373.283 156.331 373.283 180.631V559.106C373.283 583.406 353.584 603.106 329.283 603.106H169.919C145.619 603.106 125.919 583.406 125.919 559.106V180.631C125.919 156.331 145.619 136.631 169.919 136.631ZM169.919 150.631C153.351 150.631 139.919 164.063 139.919 180.631V559.106C139.919 575.674 153.351 589.106 169.919 589.106H329.283C345.852 589.106 359.283 575.674 359.283 559.106V180.631C359.283 164.063 345.852 150.631 329.283 150.631H169.919Z" fill="black"/>
<path d="M186.14 143.9H313.062L303.062 163.56H196.14L186.14 143.9Z" fill="black"/>
<path fill-rule="evenodd" clip-rule="evenodd" d="M162.532 54.5108C162.302 57.2627 159.885 59.3071 157.133 59.0772C126.743 56.5385 95.4992 66.8931 72.2571 90.1352C49.015 113.377 38.6604 144.621 41.1991 175.011C41.429 177.763 39.3845 180.18 36.6327 180.41C33.8808 180.64 31.4637 178.595 31.2338 175.843C28.4606 142.647 39.7761 108.474 65.186 83.0642C90.5959 57.6542 124.769 46.3387 157.965 49.1119C160.717 49.3418 162.761 51.759 162.532 54.5108Z" fill="black"/>
<path d="M180.476 53.5984L146.515 74.1987L145.655 34.4872L180.476 53.5984Z" fill="black"/>
<path fill-rule="evenodd" clip-rule="evenodd" d="M336.671 678.496C336.901 675.744 339.318 673.699 342.07 673.929C372.46 676.468 403.703 666.113 426.946 642.871C450.188 619.629 460.542 588.385 458.004 557.996C457.774 555.244 459.818 552.827 462.57 552.597C465.322 552.367 467.739 554.411 467.969 557.163C470.742 590.359 459.427 624.532 434.017 649.942C408.607 675.352 374.434 686.668 341.237 683.894C338.486 683.665 336.441 681.247 336.671 678.496Z" fill="black"/>
<path d="M318.726 679.408L352.688 658.808L353.547 698.519L318.726 679.408Z" fill="black"/>
</svg>
