<svg width="165" height="164" viewBox="0 0 165 164" fill="none" xmlns="http://www.w3.org/2000/svg">
<path d="M160.256 81.8575C160.256 124.796 125.448 159.604 82.5098 159.604C39.5718 159.604 4.76367 124.796 4.76367 81.8575C4.76367 38.9195 39.5718 4.11133 82.5098 4.11133C125.448 4.11133 160.256 38.9195 160.256 81.8575Z" fill="#FFD60A"/>
<path fill-rule="evenodd" clip-rule="evenodd" d="M164.256 81.8575C164.256 127.005 127.657 163.604 82.5098 163.604C37.3627 163.604 0.763672 127.005 0.763672 81.8575C0.763672 36.7103 37.3627 0.111328 82.5098 0.111328C127.657 0.111328 164.256 36.7103 164.256 81.8575ZM82.5098 159.604C125.448 159.604 160.256 124.796 160.256 81.8575C160.256 38.9195 125.448 4.11133 82.5098 4.11133C39.5718 4.11133 4.76367 38.9195 4.76367 81.8575C4.76367 124.796 39.5718 159.604 82.5098 159.604Z" fill="#171717"/>
<path d="M97.0864 47.2411C97.0864 54.5763 98.7543 60.5227 100.812 60.5227C102.869 60.5227 104.537 54.5763 104.537 47.2411C104.537 39.9059 102.869 33.9595 100.812 33.9595C98.7543 33.9595 97.0864 39.9059 97.0864 47.2411Z" fill="#171717"/>
<path d="M60.48 47.2411C60.48 54.5763 62.1479 60.5227 64.2053 60.5227C66.2628 60.5227 67.9307 54.5763 67.9307 47.2411C67.9307 39.9059 66.2628 33.9595 64.2053 33.9595C62.1479 33.9595 60.48 39.9059 60.48 47.2411Z" fill="#171717"/>
<rect x="22.0859" y="75.5181" width="16.3745" height="4" fill="#171717"/>
<rect x="126.558" y="75.5181" width="16.3745" height="4" fill="#171717"/>
<path d="M134.745 77.5181C134.745 106.368 111.358 129.755 82.5078 129.755C53.6579 129.755 30.2705 106.368 30.2705 77.5181" stroke="black" stroke-width="4"/>
</svg>
