<svg width="188" height="60" viewBox="0 0 188 60" fill="none" xmlns="http://www.w3.org/2000/svg">
<path fill-rule="evenodd" clip-rule="evenodd" d="M0.0416161 17.1855L0.0332062 17.1836L0.0332031 17.1855L0.0202314 33.9056C0.00264115 56.5759 17.2143 59.6791 17.2143 59.6791V35.4133C17.0298 33.8057 15.1998 22.4153 0.0332031 17.1855L0.0416161 17.1855Z" fill="black"/>
<path fill-rule="evenodd" clip-rule="evenodd" d="M34.4435 17.2L34.4305 33.8787C34.413 56.5489 17.2131 59.6786 17.2131 59.6786V35.4029C17.2283 35.5339 17.233 35.6034 17.233 35.6034C17.233 35.6034 18.2095 22.8633 34.4435 17.2ZM34.4435 17.159L34.4435 17.1567L34.4317 17.159L34.4435 17.159Z" fill="#333F52"/>
<path d="M84.7629 17.1196L99.9341 17.108C98.3263 39.0421 90.4439 54.7145 87.9788 59.2403L72.8914 59.252C72.0231 56.0691 70.755 50.1889 68.5347 41.4443C66.4682 50.1922 65.1073 56.0744 64.3178 59.2586L49.2304 59.2702C46.8561 54.7481 38.9979 39.0878 37.2734 17.1562L52.5283 17.1445C53.2382 30.3305 56.1579 44.0844 56.7101 44.6369C57.2632 43.916 60.2878 30.4088 61.0182 17.1379L76.1894 17.1263C76.9662 30.3122 79.8189 44.0662 80.4548 44.6186C81.0917 43.9144 83.9489 30.3906 84.7629 17.1196Z" fill="white"/>
<path d="M102.326 0.0156305L118.134 0.00344849L118.123 13.9105L102.315 13.9226L102.326 0.0156305ZM122.309 57.2367C120.718 58.1093 116.832 59.2349 113.567 59.2374C107.053 59.2424 102.533 57.0174 102.543 44.3838L102.564 17.106L117.652 17.0943L117.63 44.2717C117.629 46.5001 117.779 47.0529 118.667 47.0523C118.817 47.0521 119.135 46.9681 120.408 46.7326L122.309 57.2367Z" fill="white"/>
<path d="M155.602 28.2736C152.421 27.8069 150.445 27.5571 147.264 27.5596C143.128 27.5628 140.281 27.9671 140.279 29.6259C140.276 33.6807 157.678 29.2941 157.665 46.0664C157.654 59.6551 145.581 59.9827 140.021 59.987C133.357 59.9922 127.547 59.4437 124.365 58.8932L125.094 47.8508C128.912 48.25 134.069 48.7152 137.334 48.7127C140.281 48.7104 142.341 48.3067 142.343 46.7149C142.346 42.1071 124.944 46.3262 124.957 30.1236C124.968 16.6187 137.041 16.291 143.002 16.2864C148.88 16.2819 153.568 16.5966 156.431 17.2312L155.602 28.2736Z" fill="white"/>
<path d="M185.946 29.2044C184.121 28.9713 182.129 28.889 181.024 28.8899C179.835 28.8908 178.076 29.0429 176.334 29.614L176.311 59.1873L161.291 59.1989L161.321 20.7954C165.375 17.9271 172.125 16.2632 177.919 16.2587C181.653 16.2558 183.562 16.4051 187.999 17.3568L185.946 29.2044Z" fill="white"/>
<path d="M13.0853 31.2317C13.0834 33.6444 11.1227 35.6063 8.71139 35.6082C6.30007 35.61 4.3424 33.6512 4.34427 31.2384C4.34614 28.8256 6.30685 26.8637 8.71817 26.8619C11.1295 26.86 13.0872 28.8189 13.0853 31.2317Z" fill="white"/>
<path d="M9.61663 31.2346C9.61623 31.7373 9.21402 32.1566 8.69492 32.157C8.19257 32.1574 7.77426 31.7555 7.77467 31.2361C7.77506 30.7334 8.17727 30.3141 8.69637 30.3137C9.21547 30.3133 9.61702 30.7319 9.61663 31.2346Z" fill="#231F20"/>
<path d="M30.2474 31.216C30.2455 33.6287 28.2848 35.5905 25.8735 35.5924C23.4622 35.5942 21.5045 33.6354 21.5064 31.2227C21.5083 28.8099 23.469 26.8481 25.8803 26.8463C28.2916 26.8444 30.2493 28.8032 30.2474 31.216Z" fill="white"/>
<path d="M26.7788 31.2208C26.7784 31.7234 26.3762 32.1426 25.8571 32.143C25.3547 32.1433 24.9364 31.7416 24.9368 31.2222C24.9372 30.7196 25.3394 30.3005 25.8585 30.3001C26.3776 30.2997 26.7792 30.7182 26.7788 31.2208Z" fill="#231F20"/>
<path d="M17.331 17.1722L17.2473 17.1723L0.0332031 17.1855C16.3722 22.8196 17.233 35.6034 17.233 35.6034C17.233 35.6034 18.2142 22.8014 34.5619 17.1589L17.331 17.1722Z" fill="#7AC2BB"/>
</svg>
